<svg fill="#8957e5" width="158.402" height="255.21" viewBox="0 0 41.91 67.524" xmlns="http://www.w3.org/2000/svg">
    <path
        d="M10.412 67.43c.016-.05.066-.219.11-.375.088-.306.148-.406.246-.406.09 0 .15-.173.448-1.288.438-1.638.559-1.913.905-2.057.219-.092.806.022 2.208.427l.774.224.044.157c.024.087.044.223.044.303 0 .08.02.14.045.131.026-.009.05-.27.06-.647.01-.351.04-.697.07-.777.046-.123.043-.156-.02-.226-.07-.077-.07-.084.016-.13.073-.04.091-.09.091-.264 0-.26.06-.563.2-1.017.113-.363.133-.576.061-.62-.027-.018-.01-.076.044-.152.075-.105.088-.193.088-.575 0-.86.022-1.113.101-1.192.087-.087.085-.076.03-.219-.027-.071-.028-.252-.003-.494a3.27 3.27 0 00.027-.392c-.012-.012-.42.085-2.36.561-.734.18-1.213.275-1.462.289-.36.02-.378.016-.611-.126-.178-.107-.29-.222-.433-.44-.15-.23-.215-.294-.299-.294-.125 0-.22-.093-.818-.806-.24-.286-.677-.795-.97-1.132-.294-.336-.566-.679-.605-.76-.102-.216-.05-.474.2-1.003l.214-.449-.363-.403c-2.474-2.748-3.233-3.65-3.93-4.67-.21-.306-.396-.556-.416-.556-.019 0-.058.028-.087.063a.544.544 0 01-.203.113c-.127.042-.17.037-.277-.03-.13-.083-.339-.337-.536-.65a2.996 2.996 0 00-.294-.37 2.514 2.514 0 01-.295-.392 48.582 48.582 0 00-.288-.496c-.146-.247-.168-.313-.126-.38.041-.066.02-.124-.129-.346a4.022 4.022 0 01-.299-.554l-.121-.287.12-.243.122-.243-.126-.126C1.4 43.9.58 42.188.154 41.074c-.126-.332-.155-.466-.154-.72.001-.279.02-.347.167-.619a31.522 31.522 0 011.621-2.685c.306-.444.64-.961.743-1.15.103-.188.295-.492.428-.676.133-.184.358-.56.5-.837.448-.868.539-1.013.956-1.533.224-.28.505-.672.623-.873.118-.201.356-.554.528-.784a9.13 9.13 0 00.543-.83c.126-.226.413-.686.636-1.022.485-.73.774-1.266 1.048-1.943.304-.75.536-1.163 1.137-2.022.748-1.07.68-.905.939-2.255.255-1.33.54-1.796 1.268-2.071.18-.069.225-.115.421-.445.121-.203.382-.737.579-1.186.197-.45.396-.901.442-1.004.12-.269.564-1.391.772-1.952 1.84-4.97 2.37-6.528 2.717-8.004.428-1.818.76-2.805 1.327-3.934.456-.91 1.076-1.684 1.987-2.482.716-.627 1.771-1.247 2.722-1.6 1.564-.58 3.583-.597 5.26-.041 1.22.403 2.703 1.32 3.63 2.243 1.092 1.088 1.616 1.959 2.311 3.842a11.39 11.39 0 01.682 2.794c.123.962.033 2.108-.229 2.942-.119.38-.357.917-.466 1.053-.039.048-.003-.06.078-.24.357-.787.5-1.422.536-2.381.017-.461.008-.804-.026-1.004-.082-.479-.224-1.042-.275-1.09-.033-.03-.037-.01-.014.065.017.06.042.473.054.917.017.62.006.9-.047 1.2-.182 1.043-.769 2.351-1.254 2.795l-.143.13.167-.232c.143-.199.271-.465.467-.968.051-.131.051-.131-.378.408-.187.236-.372.441-.41.455-.039.015-.14.082-.227.15-.086.069-.253.161-.37.206-.183.069-.221.104-.254.231-.06.236.116 1.378.437 2.827.388 1.757.802 3.123 1.554 5.13.664 1.773 1.07 3.113 1.26 4.144.048.266.115.583.147.703.099.368.508 1.296.683 1.55.593.857.724 1.136 1 2.126.1.355.364 1.107.586 1.672.408 1.032.462 1.181 1.115 3.056.197.564.496 1.38.664 1.811.382.977.59 1.602.816 2.451.25.934.31 1.09.677 1.712.385.653.478.876.55 1.316.077.464.19.804.514 1.528.398.893.635 1.47.581 1.417-.074-.074-.9-1.901-1.01-2.234-.046-.142-.058-.152-.087-.077-.147.374.103 1.158.597 1.88.114.166.297.489.407.717l.2.414.012 2.933.011 2.932-.295.03c-.689.067-1.297.254-2.144.656-.455.216-.492.243-.464.335.016.054.137.384.268.732.132.348.329.889.438 1.2.393 1.127.72 1.901 1.319 3.134.454.934.89 2.155.868 2.428-.011.136-.037.084-.183-.366-.266-.823-.422-1.201-.894-2.168-.439-.9-.856-1.896-1.294-3.093-.213-.58-.39-1.054-.912-2.444a62.002 62.002 0 01-.217-.582c-.025-.073-.043-.068-.2.055-.187.149-.459.553-.397.59.02.014.051.108.067.21.016.102.078.348.139.546.09.299.1.374.054.43-.033.04-.04.079-.015.096a.166.166 0 01.053.088c.007.032.114.21.24.393.224.33.43.686.6 1.04.048.1.134.385.192.634.152.661.427 1.66.681 2.48.123.397.33 1.163.462 1.703.411 1.693.504 2.062.544 2.17.04.103.04.103.3-.106.142-.115.378-.314.524-.442l.265-.234v.15a.31.31 0 01-.087.23.462.462 0 00-.113.221c-.015.08-.055.155-.088.168a.1.1 0 00-.062.085c0 .051.024.05.149-.006.132-.06.147-.083.13-.21-.009-.08.003-.156.027-.17.028-.018.044.098.044.317 0 .31-.011.354-.11.446-.108.102-.145.219-.07.219.022 0 .06-.06.086-.131.025-.072.056-.131.069-.131.012 0 .022 1.1.02 2.445l-.001 2.444h-.15c-.148 0-.15-.002-.15-.194 0-.106-.02-.206-.046-.222-.03-.019-.029-.048.007-.091.041-.05.036-.075-.027-.12-.054-.04-.063-.067-.028-.089.083-.051.062-.21-.026-.192-.068.013-.075.066-.065.462l.012.446h-.988c-.923 0-.985-.005-.957-.076.045-.11.084-1.913.048-2.199l-.03-.241-.489.122c-.869.217-1.865.42-2.759.562-1.661.264-3.405.558-3.475.586-.061.025-.074-.034-.1-.443-.093-1.467-.25-2.632-.571-4.207a36.234 36.234 0 01-.243-1.28c-.052-.361.006-1.053.146-1.73.078-.38.094-.609.095-1.338 0-.843.004-.877.082-.836.055.03.096.028.129-.004.026-.027.155-.048.286-.048.18 0 .27-.024.373-.101.215-.162.28-.18.113-.033-.098.086-.121.124-.065.104.08-.028.082-.023.022.052-.078.097-.07.094.305-.145.52-.33.584-.379.512-.393a.302.302 0 00-.164.037c-.051.027-.103.04-.115.028-.042-.042.182-.132.313-.127.102.005.112-.001.047-.028-.083-.033-.083-.034 0-.068.046-.019.14-.042.21-.051a.315.315 0 00.184-.093c.032-.042.059-.055.06-.028 0 .027-.15.184-.335.35-.522.467-.625.581-.625.696 0 .058.013.106.028.106.042 0 .53-.254.663-.344.064-.044.159-.108.21-.141.288-.189 1.327-1.107 1.454-1.286.117-.162.131-.202.066-.175-.109.046-.43.11-.45.09-.008-.009.066-.057.164-.107.115-.058.18-.12.18-.174 0-.045.015-.09.035-.097.02-.008.136-.126.259-.263.163-.181.216-.272.199-.338-.013-.05-.044-.09-.07-.09-.082 0-.479.243-1.079.661-.932.651-2.489 1.674-2.728 1.793-.12.06-.24.101-.267.092-.063-.023-.103.42-.104 1.147 0 .415-.023.66-.083.894-.36 1.414-.326 2.353.192 5.432.162.96.327 2.162.327 2.374 0 .12-.014.136-.12.136-.066 0-.189.022-.273.048-.091.03-.776.06-1.71.078-.858.016-1.571.041-1.585.056-.015.014.004.214.041.445.107.663.177.595-.615.595h-.682l.024-.12c.065-.33.13-.842.11-.863-.013-.012-.482-.06-1.044-.107a334.41 334.41 0 01-1.283-.108 49.55 49.55 0 01-1.354-.177c-2.86-.401-3.921-.545-4.344-.588a62.369 62.369 0 01-3.393-.504 16.52 16.52 0 00-.35-.065c-.006 0-.01.265-.01.589 0 .562.003.59.097.65.206.128 4.52 1.096 5.327 1.195.09.011.174.038.188.06.014.022-1.284.038-3.123.038H15.19l.022-.098c.075-.335.289-2.205.28-2.45-.008-.21-.03-.065-.105.671a33.17 33.17 0 01-.153 1.26c-.048.32-.086.59-.086.6 0 .01-.372.017-.827.017h-.826l.101-.382.264-.993c.225-.848.284-1.144.278-1.397-.006-.205-.008-.2-.042.087-.042.362-.125.714-.434 1.843l-.23.838-1.415.003-1.416.003.032-.1c.064-.2.148-.537.148-.595 0-.045-.013-.048-.059-.01-.053.044-.173.49-.173.644 0 .033-.037.06-.083.06-.064 0-.076-.021-.054-.093zm2.975-.614c-.014-.035-.024-.025-.026.026-.002.046.008.072.023.057.014-.014.016-.052.003-.083zm.088-.306c-.014-.035-.025-.024-.027.026-.002.046.009.072.023.058.015-.015.016-.052.004-.084zm28.025-.171a.853.853 0 01.055-.292c.065-.122.061-.14-.031-.14-.068 0-.079-.036-.074-.251.003-.138-.015-.285-.04-.326-.034-.057-.021-.098.053-.177.093-.099.132-.252.064-.249-.08.004-.237.179-.214.239.014.036.009.065-.012.065-.02 0-.028.094-.018.208.05.58.067.678.105.618.032-.05.04-.048.04.012 0 .04-.02.087-.047.103-.026.016-.035.077-.02.135a.316.316 0 01-.022.195c-.043.08-.037.088.053.075.089-.012.103-.04.108-.215zm-27.93-.126c0-.042-.014-.034-.038.021a.48.48 0 00-.037.153c0 .041.014.033.037-.022a.48.48 0 00.038-.152zm28.251-.106a.76.76 0 01.025-.186c.014-.043-.005-.03-.042.03-.077.125-.09.262-.026.262.024 0 .043-.048.043-.106zm-28.162-.178l-.002-.087-.037.087a.53.53 0 00-.04.153c-.003.058.002.058.04 0a.315.315 0 00.04-.153zm15.624-.054a5.289 5.289 0 00-.524 0c-.151.008-.039.015.25.015.287 0 .411-.006.274-.015zm1.439 0a.965.965 0 00-.24 0c-.066.01-.012.019.12.019s.186-.008.12-.018zm-2.63-.041c-.744-.022-3.58-.146-3.777-.165-.174-.017-.182-.015-.065.023.175.056 2.465.16 3.449.157.432-.002.609-.009.392-.015zm3.416 0a.476.476 0 00-.175-.002c-.054.01-.02.02.076.02s.14-.008.1-.019zM13.744 65.6c0-.04-.014-.033-.037.022a.48.48 0 00-.038.153c0 .041.014.033.038-.022a.48.48 0 00.037-.153zm10.266-.428c0-1.173.085-4.21.135-4.8.027-.317.036-.649.02-.736-.03-.157-.03-.158-.098-.062-.056.08-.062.185-.038.628.016.292.009 1.208-.016 2.037-.105 3.514-.106 3.58-.054 3.58.036 0 .05-.186.05-.647zm7.793-.286c-.04-.316-.15-1.114-.247-1.774-.21-1.443-.242-2.075-.175-3.524.073-1.556.083-2.86.024-2.88-.033-.011-.058.212-.08.716-.017.403-.059.959-.093 1.235-.034.278-.062.884-.062 1.36 0 .916.04 1.309.326 3.138.085.54.198 1.364.252 1.832.058.506.103.774.112.66a6.116 6.116 0 00-.057-.763zm9.93.572c0-.042-.018-.076-.041-.076-.05 0-.13.265-.098.322.027.05.136-.144.138-.246zm-7.748.054c.336-.05.867-.13 1.179-.18.742-.116 3.15-.554 3.318-.603.216-.062.01-.05-.357.021-1.048.205-4.584.795-4.924.822-.099.008-.094.034-.353-1.783-.157-1.095-.343-2.11-.503-2.738a5.178 5.178 0 01-.113-.6c-.015-.145-.044-.264-.064-.264-.047 0-.007.322.095.764.195.84.37 1.845.676 3.864.064.42.123.787.131.815.01.036.057.04.16.012.079-.022.419-.08.755-.13zm-10.565.088a7.756 7.756 0 00-.764-.086 10.525 10.525 0 01-.807-.087 5.578 5.578 0 00-.459-.066 88.628 88.628 0 01-3.012-.438c-.49-.091-2.808-.414-2.828-.394-.026.026.185.062 1.3.219 1.34.19 1.977.304 2.423.437.751.224 1.768.369 2.638.377.326.004.74.02.92.037.18.017.416.032.524.034.178.003.184 0 .065-.033zm-9.64-.272c-.013-.03-.023-.006-.023.054s.01.085.022.055a.168.168 0 000-.11zm.044-.283c-.01-.043-.02-.019-.021.053-.001.072.008.107.02.078a.25.25 0 00.001-.131zm27.98-.118c-.045-.232-.114-.189-.114.072 0 .21.006.222.071.156.053-.052.064-.112.042-.227zm-.428-.027c.062-.099.036-.173-.06-.173-.04 0-.062.046-.062.131 0 .153.043.168.122.042zm-28.94-.24c.1-.168.119-.282.048-.282-.024 0-.043-.03-.043-.065 0-.036-.02-.066-.044-.066-.046 0-.058.051-.046.203.004.052-.013.107-.039.123-.056.035-.062.242-.006.242.021 0 .08-.07.13-.156zm2.777.024c-.015-.024-.08-.043-.144-.041-.105.003-.109.007-.03.04.12.053.206.053.174 0zm26.286-.114c.071-.172.06-.232-.024-.13-.03.035-.082.053-.117.04-.055-.022-.055-.038.003-.127.05-.076.061-.177.045-.395a1.534 1.534 0 00-.042-.313c-.01-.012 0-.058.025-.104.039-.073.032-.08-.068-.055-.097.025-.11.015-.11-.083 0-.107-.07-.193-.117-.146-.03.03.08.342.145.41a.59.59 0 01.08.232c.027.155.016.19-.083.283-.062.057-.113.124-.113.148 0 .068.078.098.1.037.01-.03.016.024.014.12-.003.105.015.173.046.174a.14.14 0 01.083.034c.052.051.063.042.133-.125zm.325-.1a.562.562 0 01-.046-.22c0-.074-.02-.134-.044-.134-.024 0-.044.04-.044.087 0 .106.147.456.167.397.007-.024-.007-.082-.033-.13zm-29.601.03c0-.057-.1-.02-.121.044-.011.032.009.042.051.026.038-.015.07-.046.07-.07zm26.923.07c-.014-.015-.052-.016-.083-.003-.035.013-.025.024.026.026.046.002.072-.009.057-.023zm-.136-1.288c-.131-.634-.381-1.878-.555-2.765-.174-.887-.324-1.591-.333-1.565-.016.048.024.256.712 3.718l.373 1.877c.003.015.014-.004.024-.042.01-.039-.09-.589-.22-1.223zm1.37.965c.037-.023.047-.042.022-.042a.262.262 0 00-.109.042c-.036.023-.045.042-.021.042a.262.262 0 00.109-.042zm.35-.2c0-.011-.04 0-.087.025-.048.026-.088.057-.088.069 0 .012.04 0 .088-.025.048-.026.087-.056.087-.068zm.305-.222l.11-.124-.153.131c-.242.207-.245.21-.153.162a.883.883 0 00.196-.169zm.522-.067c-.03-.127-.064-.205-.075-.173-.022.066.079.457.11.426.012-.012-.004-.125-.035-.253zm.25.175c-.013-.035-.024-.024-.026.027-.002.046.009.071.023.057.015-.015.016-.052.003-.084zm-.007-.503c-.04-.38-.095-.294-.075.117.013.25.027.307.061.247.027-.048.032-.193.014-.364zm-19.519.048c.038-.014.058-.044.045-.065-.013-.021.009-.04.049-.04.052 0 .067-.025.05-.09-.015-.055 0-.098.04-.114.036-.013.055-.051.043-.083-.012-.032.005-.086.038-.12.043-.042.047-.074.015-.106a.084.084 0 01-.009-.104.562.562 0 00.042-.215.575.575 0 01.039-.212c.02-.033.01-.072-.026-.096-.049-.032-.046-.048.019-.086.061-.036.068-.06.029-.106-.027-.033-.036-.083-.018-.112a.362.362 0 00.036-.142c.003-.058.044-.1.114-.116.097-.023.1-.03.028-.057-.066-.025-.071-.043-.027-.096.043-.052.042-.08-.004-.135-.049-.058-.046-.076.017-.111.055-.03.063-.062.033-.119-.033-.062-.012-.092.109-.157.082-.044.15-.094.15-.111 0-.095-1.338-.114-1.797-.025-.405.079-1.53.476-1.412.498.153.03.502.192.502.234 0 .022-.02.029-.043.014-.024-.015-.044.004-.044.042 0 .039.031.082.069.096.046.018.053.037.02.057-.031.02-.017.064.044.134.052.06.07.112.044.121-.072.024-.054.096.025.096.058 0 .06.011.016.065-.044.054-.041.066.017.066.063 0 .09.05.076.141-.003.018.019.034.049.035.074.001.23.216.157.216-.03 0 .009.047.085.103.146.107.143.159-.01.16-.137.001 0 .076.204.11.161.027.215.083.113.118-.063.02.673.285.859.31.072.008.134.019.138.022.004.004.039-.005.076-.02zm19.063-.137c.023-.299.022-.36-.007-.36-.065 0-.111.134-.092.264.016.113.092.186.099.096zm-.004-.546c.002-.064-.076-.03-.19.083-.063.063-.114.156-.113.207.001.079.024.067.152-.082a.955.955 0 00.151-.208zm.28.293c.015-.039.007-.057-.017-.041-.024.014-.044.045-.044.068 0 .062.032.049.06-.027zm-.424-.38c.042-.065.143-.441.124-.461-.027-.027-.151.266-.128.303.013.02-.015.038-.063.038-.064 0-.08.022-.063.087.027.1.079.113.13.033zm.622-.33c.002-.033-.065.006-.15.085-.084.08-.152.162-.152.183 0 .06.299-.204.302-.269zm-.723.101c-.028-.074-.086-.086-.123-.025-.014.022.01.05.052.06.042.011.081.023.087.025.005.003-.002-.024-.016-.06zm.115-.11c0-.023-.009-.043-.02-.043-.01 0-.03.02-.045.044-.015.024-.007.043.019.043.025 0 .046-.02.046-.043zm.371-.305c.015-.024.006-.043-.02-.043-.024 0-.045.02-.045.043 0 .024.008.044.019.044.01 0 .031-.02.046-.044zm-25.02-1.3c.211-.056.241-.074.166-.102-.174-.065-.828.089-.771.181.031.05.215.027.606-.078zm.083-.256a.25.25 0 00-.131-.002c-.043.011-.019.02.053.022.072 0 .107-.009.078-.02zm7.159-.252c.095-.043.13-.172.111-.422l-.013-.193-1.376-.028c-.798-.017-1.62-.058-1.957-.098a9.513 9.513 0 00-.873-.069l-.291.001.314.128c.399.162 2.556.699 2.96.736.338.032 1.005-.001 1.125-.055zm.692-.05c.098-.062.274-.135.392-.164.149-.035.208-.069.193-.109-.012-.032.007-.087.043-.123.131-.132.07-.157-.518-.219-.193-.02-.265-.011-.294.034-.04.063-.055.693-.017.693.013 0 .103-.05.2-.112zm9.272-.938c.77-.346 2.89-1.64 3.14-1.916.182-.2-.073-.063-.47.253-.349.279-1.22.747-1.895 1.018-.35.14-.643.249-.65.24-.015-.013.448-.247 1.926-.974.485-.238.657-.348.84-.534.127-.13.23-.25.23-.27 0-.019.012-.065.027-.103.07-.185-.32-.008-1.05.472-.955.63-2.666 1.706-2.99 1.88-.247.132-.334.202-.345.278-.032.223.014.23.372.056.188-.09.577-.271.865-.4zm-10.423-.17c.409-.088.574-.15.632-.238.038-.057.043-.488.007-.622-.022-.083-.067-.097-.4-.124-.4-.034-.852-.154-.833-.221.017-.06.263-.136.71-.218.219-.04.446-.087.506-.104.134-.04.248-.228.288-.477.028-.178.025-.187-.052-.141-.046.026-.368.154-.716.284-.348.13-.86.332-1.135.45-.276.118-.67.267-.876.33a2.392 2.392 0 00-.556.247c-.1.073-.245.16-.324.194-.14.061-.14.063-.029.067.063.002.181.018.262.035l.148.033-.197.022c-.227.026-.248.083-.064.173l.13.064-.131.024c-.11.02-.06.044.306.147.24.067.534.14.654.161.334.059 1.217.014 1.67-.085zm1.211-.244c.401-.12.67-.25.691-.333.012-.044.005-.08-.016-.08a.749.749 0 01-.193-.106 1.019 1.019 0 00-.34-.136.716.716 0 01-.24-.073c-.068-.056-.12.074-.16.404-.023.193-.006.394.034.39l.224-.066zm13.54-.119c-.011-.03-.021-.005-.021.055s.01.085.022.055a.168.168 0 000-.11zM24.2 58.29c.019-.245.014-.319-.016-.247-.058.139-.104.748-.05.662.022-.036.052-.223.066-.415zm13.853.23c-.012-.03-.022-.006-.022.054s.01.084.022.054a.168.168 0 000-.109zm-19.849-.077c-.084-.055-.13-.055-.13 0 0 .024.044.043.098.043.08 0 .085-.009.032-.043zM38.01 58.3c-.013-.03-.023-.006-.023.055 0 .06.01.084.023.054a.168.168 0 000-.11zm-19.982-.164c.167 0 .228-.05.134-.108a2.287 2.287 0 01-.236-.324 3.239 3.239 0 00-.277-.38 6.301 6.301 0 01-.351-.437c-.314-.417-.884-.956-1.088-1.03-.138-.05-.196-.122-.099-.122.19 0 .818.533 1.14.966l.216.29.25.018c.194.014.31.056.522.186.15.093.264.177.254.187-.01.01-.06-.003-.11-.03-.07-.037-.09-.036-.09.008.003.08.245.492.29.492.057 0 .069-.269.015-.369-.061-.114.021-.122.143-.013.084.075.085.073.056-.076a2.063 2.063 0 00-.071-.262 8.924 8.924 0 01-.15-.543c-.06-.238-.13-.446-.156-.462-.026-.016-.276-.053-.557-.082-.57-.059-.663-.079-.663-.14 0-.074 1.141.05 1.703.187.204.05.784.237 1.288.416.504.18 1.06.354 1.237.388.322.062 1.209.083 1.395.034.095-.026.096-.031.026-.109-.04-.045-.09-.082-.108-.082a.769.769 0 01-.157-.048l-.123-.048.108-.041c.088-.034.096-.05.044-.083-.1-.063-.261-.049-.29.025-.05.13-.38.283-.608.28l-.215-.001.262-.122c.25-.116.41-.244.362-.291-.012-.012-.147.037-.3.11-.283.133-.502.165-.64.092a15.904 15.904 0 00-.404-.192 3.071 3.071 0 01-.567-.354 2.245 2.245 0 00-.404-.275c-.186-.082-.208-.13-.068-.151.087-.013.09-.02.025-.083-.096-.096-.029-.214.073-.13.039.033.08.049.092.037.03-.03-.274-.235-.467-.315a2.297 2.297 0 00-.524-.095 2.294 2.294 0 01-.517-.092c-.223-.093-.597-.187-.742-.187-.136 0-.375-.077-.341-.11.011-.012.225.01.475.046l.88.127c.852.119 1.55.333 2.39.736.554.265 1.088.492 1.19.506a.989.989 0 00.101.004c.04 0 .056.02.037.051-.023.037.031.043.205.023.157-.019.214-.014.17.014-.048.031-.023.042.096.043.171 0 .26-.072.162-.133-.07-.044.123-.129.293-.129.061 0 .105-.023.1-.054a.621.621 0 010-.12c.01-.097.404-.272.633-.281.11-.005.213-.022.229-.039.016-.016.063-.03.104-.03.086 0 .13-.302.13-.894v-.359l-.317-.092c-.378-.11-.793-.186-1.844-.338a20.227 20.227 0 01-1.223-.214l-.96-.215a20.185 20.185 0 01-.911-.227c-.342-.097-.395-.102-.458-.046-.044.04-.119.055-.192.041-.073-.014-.12-.004-.12.026 0 .027-.047.048-.104.048-.1 0-.245.156-.245.265 0 .087.107.016.173-.115.05-.102.066-.112.08-.05a.186.186 0 01-.033.139c-.059.07-.032.09.173.127.084.015.418.127.742.25.324.121.805.296 1.07.388.56.196 1.467.575 1.664.695.168.103.211.308.108.515-.055.112-.097.142-.2.143l-.13.001.141-.128c.153-.14.188-.249.066-.202-.138.053-.72.111-.836.084a2.699 2.699 0 01-.322-.114c-.156-.066-.208-.11-.207-.18.001-.154.061-.21.189-.178.172.043.142-.024-.109-.24-.174-.15-.4-.265-1.015-.516-.998-.41-1.1-.44-1.567-.49-.391-.04-.733-.163-.948-.34-.182-.15-.077-.145.154.009.12.079.267.155.327.169.096.022.12 0 .207-.18.267-.558.504-.892.433-.608a6.277 6.277 0 00-.052.23c-.026.126-.024.127.044.043.04-.048.17-.268.293-.488l.222-.401.288-.027c.516-.047.573-.063.626-.18.037-.08.078-.105.155-.096.08.01.136-.028.232-.161a.806.806 0 00.137-.284c.011-.1 0-.108-.14-.093-.085.008-.448.02-.808.027-.36.007-.678.014-.707.017-.103.01-.672.547-.924.872a5.826 5.826 0 01-.49.552 38.2 38.2 0 00-.453.434 3.186 3.186 0 01-.439.353l-.698.442a7.797 7.797 0 01-.873.474c-.477.207-.758.39-1.244.816a16.5 16.5 0 01-.72.589 7.023 7.023 0 00-.666.593c-.3.31-.317.339-.317.529 0 .18.01.201.098.202.072 0 .083.01.04.038-.042.026-.045.046-.012.067a.1.1 0 00.095.002c.026-.016.237.117.47.296.52.4.552.417.85.452.502.06 1.276-.117 1.869-.425.192-.1.472-.2.666-.24.326-.067.339-.066.516.026.1.052.298.187.44.3.889.701.967.753 1.001.661.025-.067.073-.086.208-.086zm4.126-2.578c-.018-.028-.005-.068.028-.089.093-.058.134-.047.118.033-.017.09-.104.124-.146.056zm.27-.266c-.017-.067.008-.119.086-.18.148-.116.326-.406.297-.483-.025-.064-.45-.21-1.154-.397-.59-.156-.93-.299-1.284-.54a4.025 4.025 0 00-.495-.29c-.238-.104-.218-.128.034-.04.107.036.303.085.435.108.132.024.29.06.35.08.06.021.443.13.851.24 1.125.307 1.102.3 1.004.318-.048.01-.116.027-.151.039-.104.035.504.318.925.431.36.097.732.265.732.33 0 .05-.526.138-.916.152-.468.017-.612.068-.612.216 0 .134-.068.145-.101.016zm-.116-1.128c0-.024-.009-.044-.02-.044-.01 0-.03.02-.045.044-.015.024-.007.043.019.043.025 0 .046-.02.046-.043zm15.66 3.743a1.634 1.634 0 00-.096-.426c-.044-.094-.06-.111-.044-.043.015.06.05.251.077.425.027.174.058.317.069.317.01 0 .008-.123-.006-.273zm-13.483-.615c.024-.076.055-.256.07-.4.024-.243.02-.256-.042-.175-.09.113-.197.478-.197.669 0 .126.01.141.064.097a.481.481 0 00.105-.19zm1.986-.57c.784-.256 1.638-.559 1.898-.672l.473-.207-.14-.072c-.132-.068-.158-.066-.505.032-.916.259-2.756.765-3.068.844-.19.047-.361.104-.383.125-.02.021-.05.204-.066.407l-.028.368.197-.18c.184-.17.289-.211 1.622-.646zm-14.722-.24c.212-.202.514-.549.672-.771.157-.223.315-.429.35-.458.035-.029.064-.073.064-.098 0-.069-.178.108-.673.667-.579.655-.84 1.008-.993 1.342-.179.39-.15.4.038.012.127-.264.233-.4.542-.694zm26.016.576a2.13 2.13 0 01-.054-.406c-.008-.236-.008-.237-.025-.044s.076.765.109.667a.592.592 0 00-.03-.217zm-15.383-.807c-.014-.035-.025-.025-.027.026-.002.046.009.072.023.058.015-.015.016-.053.004-.084zm2.226-.131c-.014-.035-.024-.025-.026.026-.002.046.008.072.023.058.014-.015.016-.053.003-.084zm-.881-.254c.032-.052-.01-.052-.131 0-.084.036-.084.038.008.04.053.002.108-.016.123-.04zm6.2-.191c-.647-.235-1.467-.574-2.598-1.074-.589-.26-1.433-.62-1.878-.8a38.609 38.609 0 01-1.44-.62c-.816-.378-1.138-.504-1.767-.695-.282-.086-.73-.235-.994-.333-.264-.097-.489-.168-.499-.158-.01.01.056.049.147.086.091.036.398.176.681.31.284.135.524.245.534.245.01 0 .28.116.6.257.32.142.866.36 1.213.483.739.264 2.642 1.01 4.821 1.89.81.328 1.42.55 1.506.552.036 0-.11-.064-.327-.143zm-5.272-1.138c-.018-.023-.03.252-.025.611l.009.653.024-.612c.013-.336.01-.63-.008-.652zm7.396 1.17c.05-.047.08-.133.08-.24 0-.162-.006-.168-.148-.168-.212 0-.249.072-.15.294.093.208.106.215.218.114zm-.814-.376c-.013-.15-.054-.744-.091-1.32-.038-.577-.097-1.431-.132-1.9l-.171-2.291c-.163-2.183-.214-2.628-.486-4.191-.17-.98-.204-1.113-.283-1.113-.067 0-.024.454.093.982.35 1.573.442 2.235.545 3.885.036.576.084 1.215.107 1.419.083.728.185 1.991.294 3.634.042.643.093 1.168.112 1.168.02 0 .025-.123.012-.273zm-6.266.142c0-.019-.03-.045-.065-.06-.045-.016-.066.003-.066.06 0 .057.021.077.066.06.036-.014.065-.04.065-.06zm.371.044c-.015-.024-.066-.044-.114-.044s-.075.02-.06.044c.014.024.066.044.114.044s.075-.02.06-.044zm-13.281-.182c.088-.117.08-.342-.012-.342-.056 0-.266.418-.23.455.053.052.154.005.242-.113zm-.312-.245c.17-.349-.02-.733-.386-.782-.181-.024-.184-.023-.278.172-.127.261-.091.543.094.727.232.233.419.194.57-.117zm18.65-.785a54.76 54.76 0 00-.233-3.023 90.304 90.304 0 01-.24-2.705c-.12-1.596-.44-3.923-.557-4.04-.029-.029-.035-.007-.018.066.033.143.22 1.456.332 2.322.049.376.119 1.074.155 1.55.098 1.263.141 1.751.26 2.897.12 1.17.306 3.79.27 3.826-.024.025-1.422-.473-2.537-.904-1.19-.46-1.735-.659-1.752-.642-.01.01.273.127.627.262.355.135.85.326 1.103.425.252.099.841.317 1.31.485.468.168.949.342 1.069.388.12.045.228.083.24.084.013.002 0-.444-.029-.99zm2.45.74c-.016-.02-.21.093-.248.144-.081.11-.02.107.112-.006.08-.069.141-.13.135-.138zm4.112-.513a17.343 17.343 0 01-.288-.925c-.065-.272-.154-.365-.108-.114.016.093.155.52.308.951.153.43.278.793.278.804 0 .012.01.012.021 0 .012-.012-.083-.334-.211-.716zm-4.94.592c.015-.024-.024-.063-.087-.087-.164-.063-.196-.055-.196.043 0 .068.029.088.128.088.07 0 .14-.02.156-.044zm-7.117-.083c.018-.057.084-.09.219-.111.191-.029.193-.03.22-.234a6.78 6.78 0 01.038-.272c.017-.086-.038-.135-.339-.305l-.246-.138v.571c0 .526.04.705.108.49zm7.736-.452c-.119-2.12-.38-5.312-.557-6.82-.16-1.36-.501-3.317-.515-2.948-.002.06.024.227.058.372.08.339.304 1.88.416 2.859.121 1.064.244 2.441.373 4.175l.153 2.046c.023.312.043.621.043.687 0 .066.013.12.028.12.016 0 .017-.22.001-.49zm-11.774.329c-.102-.072-.153-.05-.116.048.016.04.059.055.117.04l.091-.024zm12.804-.292c.162-.089.294-.172.294-.185 0-.021-.22.095-.818.43-.126.07-.23.138-.23.15 0 .012.104-.035.23-.106l.524-.289zm-1.543.16c-.013-.308-.025-.324-.195-.253-.088.037-.159.045-.174.02-.047-.075.028-.128.182-.128h.154l-.03-.447c-.018-.246-.034-.45-.037-.454a1.566 1.566 0 00-.213.016c-.16.018-.207.041-.207.1 0 .065.03.073.207.054.144-.015.194-.007.164.025-.024.025-.112.052-.196.06-.107.01-.157.038-.168.094-.012.065.01.078.13.072a2.21 2.21 0 01.212-.003c.113.008-.047.09-.178.09-.133 0-.173.032-.143.11.014.038.074.049.187.034.099-.013.179-.003.196.026.019.03-.005.051-.06.054a.974.974 0 00-.133.017.853.853 0 01-.109.016c-.074.006-.091.203-.022.246.024.014.044.104.044.2 0 .16.007.17.106.146a.288.288 0 01.185.02.653.653 0 00.092.047c.007 0 .01-.072.006-.162zm-21.334-.228a.466.466 0 00.17-.526c-.112-.37-.395-.551-.656-.416-.168.086-.223.19-.223.416 0 .454.412.76.709.526zm23.477-.288c0-.012-.06.009-.131.046-.072.038-.131.078-.131.09 0 .012.059-.009.13-.046.073-.037.132-.078.132-.09zm.218-.131c0-.012-.04-.001-.087.025-.048.025-.088.056-.088.068 0 .012.04 0 .088-.025.048-.026.087-.056.087-.068zm-19.273-.156c.518-.296.945-.589 1.265-.865.692-.599.83-.736 1.18-1.171.4-.498.65-.949 1.017-1.824.325-.778.682-1.513 1.208-2.486.726-1.343.974-1.826.986-1.92a.501.501 0 00-.038-.205c-.064-.154-.161-.838-.254-1.782l-.076-.764-.31-.328c-.382-.403-.445-.534-.545-1.125a4.27 4.27 0 00-.143-.62l-.064-.154-.075.339c-.061.272-.128.416-.343.74-.48.724-.788.928-1.48.982-.39.03-.487-.046-.124-.096.296-.04.655-.23.772-.407.169-.255.21-.57.208-1.601-.002-1.13-.04-1.329-.367-1.9a519.1 519.1 0 00-.413-.719c-.294-.51-.244-.503.098.013.163.247.526.721.805 1.053.28.333.587.728.684.878.218.337.227.302.024-.083-.41-.774-3.007-4.192-3.082-4.056-.016.03-.055.28-.085.555-.067.609-.031 1.901.068 2.469.142.817.53 1.805.996 2.533.21.328.224.363.092.217-.485-.537-1.195-2.233-1.42-3.396-.122-.627-.108-.97.07-1.752.25-1.1.16-1.117-.14-.025l-.214.786c-.167.615-.573 1.73-.672 1.845-.016.019.095-.335.245-.785.151-.451.294-.968.318-1.148.03-.224.029-.672-.005-1.418l-.048-1.092-.144-.218c-.164-.251-1.034-1.351-1.1-1.392-.176-.11-.436 1.719-.476 3.342-.025 1.066.025 1.987.142 2.606.224 1.178.846 2.377 1.695 3.27.143.15.24.272.215.272-.1 0-.762-.758-1.07-1.225-.483-.733-.88-1.573-1.291-2.726-.397-1.114-.523-1.756-.65-3.307-.042-.522-.088-.95-.1-.95-.014 0-.112.114-.22.252-.357.457-1.81 2.11-2.466 2.805-1.183 1.253-1.446 1.584-1.576 1.981-.16.49-.416.84-.67.92-.083.027-.11.076-.094.17.004.02-.015.285-.042.589l-.05.552.302.459c.166.252.47.812.677 1.244.984 2.057 1.027 2.171.94 2.493-.058.217-.05.238.458 1.414.399.923.982 2.095 1.423 2.86.166.288.391.68.5.873.323.57.35.604.5.642.093.024.186.1.273.221.613.857.86 1.157 1.307 1.586.278.267.574.557.658.644.084.087.193.159.242.159.049 0 .264-.1.479-.224zm19.942-.296c.028-.034-.032-.007-.134.06a.965.965 0 00-.186.141c0 .032.266-.136.32-.201zm-9.142-.065c-.05-.047-.345-.148-.345-.117 0 .019.063.055.141.08.156.05.232.064.204.037zM10.23 52.396a5.501 5.501 0 011.68-.835c.065-.019.091.033-.56-1.086a35.902 35.902 0 01-1.828-3.668c-.548-1.29-.634-1.434-.936-1.573a2.308 2.308 0 00-1.187-.225c-.78.049-1.514.31-2.118.753-.517.38-1.157 1.047-1.349 1.408-.047.088-.031.14.13.436.64 1.176 1.946 2.788 4.505 5.56l.389.42.465-.47a8.62 8.62 0 01.809-.72zm21.66 1.05c.106-.012.13-.034.125-.118l-.06-.874c-.05-.714-.062-.774-.147-.815-.092-.045-.092-.045.01-.048.086-.003.099-.02.077-.101a1.435 1.435 0 01-.027-.284c0-.185-.001-.186-.16-.186-.088 0-.146-.014-.128-.032.018-.018.085-.034.15-.035.161-.002.151-.122-.013-.15l-.128-.023.12-.055c.133-.06.144-.211.015-.2-.092.007-.098-.054-.009-.088.036-.014.065-.065.065-.114 0-.073-.028-.088-.16-.088-.185 0-.18-.03.009-.056.155-.02.187-.176.04-.198-.15-.021-.325.068-.325.165 0 .049.017.088.038.088.02 0 .028.05.016.11-.015.082-.002.109.055.109.055 0 .064.015.032.054-.047.059-.06.426-.015.426.038 0 .032.293-.007.332a.155.155 0 00-.032.095c0 .05.041.057.204.033.18-.027.195-.023.138.034a.35.35 0 01-.17.08c-.071.01-.11.048-.12.114-.014.095.057.125.243.101.03-.004.055.01.055.029 0 .02-.054.04-.119.046-.147.012-.207.07-.17.164.018.049.052.062.103.041.163-.067.243-.079.214-.031-.016.025-.088.06-.16.075-.09.02-.13.055-.13.113 0 .1.005.1.197.02.084-.034.152-.044.152-.021 0 .023-.079.073-.175.112-.117.047-.174.096-.174.152 0 .096.002.096.15.04.087-.033.112-.029.112.019 0 .035-.053.068-.12.075-.076.01-.126.044-.136.097-.013.072.004.08.142.057.199-.032.2 0 .004.081-.248.104-.191.213.08.152.09-.02.16-.02.16.002 0 .02-.054.05-.12.064-.21.047-.229.059-.229.15 0 .098.045.106.252.047.082-.023.141-.024.141-.001 0 .058-.154.13-.28.13-.084 0-.113.022-.113.087 0 .07.02.083.098.064.054-.014.158-.031.23-.04zm-.066-.854a.044.044 0 11.087 0c0 .024-.02.044-.043.044a.044.044 0 01-.044-.044zm-.13-1.353c-.054-.035-.048-.043.032-.043.054 0 .098.019.098.043 0 .054-.046.054-.13 0zm3.997 2.09c.016-.026-.022-.014-.085.027a.413.413 0 00-.115.094c0 .031.168-.07.2-.12zm-9.827-1.444c.066-1.266.075-1.848.049-3.307-.018-.974-.03-2.188-.027-2.698.003-.51-.01-1-.027-1.091l-.032-.164-.038.152c-.045.184-.082 8.644-.037 8.644.017 0 .067-.691.112-1.536zm-.951 1.278a4.2 4.2 0 00-.655-.26 6.092 6.092 0 01-.729-.268c-.49-.211-.96-.349-1.178-.346-.138.002 1.177.479 1.794.65.255.072.608.198.786.28.178.084.343.152.367.152.024 0-.15-.093-.385-.208zm-5.237-.451c-.01-.078-.018-.014-.018.142s.008.22.018.142c.01-.078.01-.206 0-.284zm17.802-.505c.568-.338.85-.586.85-.747 0-.066-.009-.13-.02-.14-.012-.013-.204.154-.426.368-.44.425-.938.816-1.318 1.033a1.42 1.42 0 00-.267.18c-.015.023.147-.065.359-.196s.581-.355.822-.498zm-12.926.566c-.002-.052.013-.094.033-.094.06 0 .04-.097-.04-.188-.075-.084-.073-.086.043-.064.147.027.147.024.01-.123-.06-.065-.1-.127-.09-.137.009-.01.102.024.207.075l.19.092-.197-.177-.196-.177.152.025.153.024-.131-.14-.13-.139.152.027.153.027-.164-.14c-.201-.174-.208-.22-.022-.145.309.126.355.113.127-.035a3.985 3.985 0 01-.26-.18c-.04-.04.356.028.41.071.027.02.06.025.076.009s.063 0 .106.037c.042.035.148.105.236.155l.16.091.034-.094c.061-.168.09-5.728.034-6.462l-.027-.342-.133.026a.535.535 0 00-.155.048c-.011.011-.016.163-.011.338.008.276.024.332.123.436.15.158.109.191-.072.058a1.193 1.193 0 00-.368-.157 10.052 10.052 0 01-.662-.195c-.434-.143-.72-.212-.72-.174 0 .03.325.17.846.366.55.207.905.4 1.03.559.068.086.089.177.089.388v.276l-.272-.18c-.54-.36-1.23-.667-1.693-.756-.137-.026-.146-.022-.087.038.036.036.4.242.81.456.41.215.856.464.993.555.219.145.249.183.249.31v.143l-.199-.019c-.227-.02-.542-.16-.93-.412a2.44 2.44 0 00-.296-.175c-.048 0 .023.124.221.385.22.29.242.358.112.358-.102 0-.116.066-.022.103.104.04.077.11-.032.083-.08-.02-.089-.013-.044.035.078.083.068.114-.043.143-.077.02-.086.037-.044.08.07.069.07.123 0 .123-.031 0-.11.05-.175.111-.19.176-.161.31.142.653.144.163.262.315.262.336 0 .022-.074-.014-.164-.08l-.164-.12.15.161c.084.089.14.161.125.161a3.06 3.06 0 01-.314-.129c-.158-.07-.288-.11-.288-.085 0 .026-.036.024-.093-.007a1.365 1.365 0 00-.208-.084 3.093 3.093 0 01-.201-.07c-.08-.031-.082-.027-.022.047.062.077.058.08-.077.053-.135-.027-.141-.022-.122.085a.475.475 0 00.097.198c.065.072.068.09.014.124-.052.032-.046.06.036.172.081.11.086.133.029.133a.388.388 0 01-.15-.043c-.07-.037-.08-.028-.07.062a.84.84 0 00.103.259l.09.154-.127.057c-.134.059-.158.099-.085.144.074.046.049.11-.043.11-.113 0-.113.07 0 .13.113.061.072.131-.076.131h-.114l.102.11.103.108h-.124c-.12 0-.121.002-.044.088.076.084.076.087-.008.087-.115 0-.155.045-.1.111.063.076.036.167-.06.206-.071.029-.074.043-.023.105.047.057.048.076.005.09a.085.085 0 00-.054.076c0 .03-.045.086-.099.123-.111.077-.116.07.252.333.384.273 1.6.81 1.746.77.024-.006.042-.053.04-.105zm11.798-.19c-.013-.034-.024-.024-.026.027-.002.046.009.072.023.057.015-.014.016-.052.003-.083zm-16.632-.286c-.011-.042-.02-.007-.02.077s.009.118.02.076a.358.358 0 000-.153zm16.588.066c-.012-.03-.022-.006-.022.054s.01.085.022.055a.168.168 0 000-.11zm-9.546.01a.262.262 0 00-.11-.042c-.023 0-.013.02.023.043a.262.262 0 00.109.042c.024 0 .014-.02-.022-.042zm-.393-.11a1.318 1.318 0 00-.24-.06c-.076.005.258.12.35.12.047.001-.002-.027-.11-.06zm9.739-.682a37.329 37.329 0 00-.484-1.608 18.806 18.806 0 01-.413-1.441 367.13 367.13 0 01-.243-1.157c-.159-.761-.481-1.763-.759-2.356-.107-.229-.205-.416-.218-.416-.013 0 .045.15.128.332.34.747.684 1.9.936 3.139.112.55.278 1.166.495 1.836.18.553.411 1.314.514 1.69.103.377.195.678.204.668.01-.01-.062-.319-.16-.687zm-9.564.518l-.197-.096.164-.014c.154-.013.164-.022.164-.159 0-.094.025-.155.07-.173.045-.017.062-.058.048-.113-.013-.048-.004-.087.02-.087.023 0 .029-.042.013-.093-.026-.082-.016-.091.083-.072.101.02.11.01.088-.081-.016-.062-.007-.103.022-.103.08 0 .055-.156-.048-.286l-.096-.122.101.026.102.027-.104-.116c-.056-.064-.21-.23-.341-.37-.13-.14-.263-.312-.293-.383-.03-.071-.075-.13-.1-.13a.045.045 0 01-.046-.044c0-.07.602.252.95.51.394.29.39.281-.238-.635-.101-.147-.167-.267-.147-.267.02 0 .184.067.364.15.312.141.86.33.961.33.026 0-.055-.103-.18-.23a3.375 3.375 0 01-.298-.338 6.342 6.342 0 00-.338-.412c-.146-.167-.236-.288-.2-.269.036.02.001-.017-.077-.081-.078-.065-.142-.135-.142-.158 0-.054.163-.051.197.004a.1.1 0 00.076.043c.027 0-.014-.052-.091-.116-.098-.082-.125-.127-.088-.15.042-.025.04-.048-.004-.102-.049-.059-.044-.068.036-.068.05 0 .093-.016.093-.034 0-.019-.127-.16-.282-.313-.155-.154-.277-.292-.273-.309.005-.016-.117-.135-.27-.264l-.28-.235.039 1.112c.022.612.033 1.805.025 2.651l-.014 1.539.102.002c.055.002.17.029.254.06.084.033.202.06.262.062.088.002.07-.016-.087-.093zm-6.782-.086c-.012-.03-.022-.005-.022.055s.01.085.022.055a.168.168 0 000-.11zm18.056-.483c.21-.187.338-.334.338-.389 0-.048-.145-.395-.322-.77a51.767 51.767 0 01-1.058-2.327c-.36-.84-1.246-2.628-1.382-2.787-.038-.044-.059-.118-.047-.165.032-.122-.22-.165-.439-.073-.138.057-.16.085-.149.186.011.093.035.116.112.108.054-.006.098.006.098.026 0 .02.05.028.11.017.148-.029.148.065-.003.726-.02.09-.011.1.081.077.058-.015.12-.012.136.005.018.017.063.031.102.032.12 0 .152.236.053.396-.104.168-.11.256-.017.22.107-.04.249.055.223.152-.012.046 0 .084.026.084.025 0 0 .049-.056.109-.082.087-.088.109-.032.109.039 0 .083-.02.098-.044.048-.077.109-.046.107.055a1.853 1.853 0 01-.06.316c-.068.254-.05.319.063.217.102-.092.175-.048.173.103-.003.234.023.379.068.37.025-.003.048.032.052.08.003.048.068.15.144.226.155.157.361.446.407.571.016.046.059.292.094.546.104.766.193 1.195.262 1.271.036.04.066.12.067.178.001.058.03.164.062.236.058.124.06.125.053.022-.004-.06-.028-.125-.052-.145-.026-.022-.02-.03.018-.02.066.018.174.369.177.574.002.148-.016.16.493-.292zm3.35.122c.227-.06.419-.108.425-.108.102 0-.35-1.569-.58-2.012-.07-.137-.076-.156-.14-.433l-.036-.152-.556.005c-.306.003-.567.016-.58.03-.014.013-.01.049.008.078.116.189.675 1.97.824 2.63.023.104.045.12.124.097.053-.015.283-.076.51-.135zm-21.558-1.385c1.01-2.768 1.053-2.88 1.637-4.263.105-.25.185-.474.177-.497-.018-.056-.706 1.602-1.037 2.501-.146.396-.385 1.035-.531 1.419-.404 1.058-.605 1.637-.57 1.636.018 0 .164-.359.324-.796zm12.142-.397c.045-.116-.036-.164-.224-.134-.139.022-.182.049-.182.111 0 .068.033.082.192.082.12 0 .2-.022.214-.059zm-.021-.301c.016-.089-.132-.104-.317-.034-.185.07-.133.138.095.123.156-.01.21-.032.222-.09zm9.467.002c-.014-.034-.024-.024-.026.027-.002.046.008.072.023.057.014-.014.016-.052.003-.084zm-9.568-.166c.168-.064.112-.156-.085-.14-.107.01-.154-.002-.135-.032.016-.026.086-.046.157-.046.109 0 .128-.017.128-.114 0-.108-.009-.113-.164-.084-.208.038-.307.126-.236.21.027.034.037.075.02.091a.198.198 0 00-.04.094c-.01.077.18.088.355.02zm-.02-.505c.05-.014.063-.06.05-.177-.02-.156-.02-.157-.192-.134a.801.801 0 00-.185.037c-.007.008-.024.09-.038.183l-.026.168.162-.028c.089-.016.192-.038.229-.049zm8.13-.31a.25.25 0 00-.131-.001c-.043.01-.019.02.053.022.072 0 .107-.009.078-.02zm-8.139-.097c.078-.049.047-.196-.044-.214-.112-.022-.386.11-.386.185 0 .05.047.068.186.067a.649.649 0 00.244-.038zm-.048-.29c.089-.028.066-.195-.026-.195-.17 0-.356.095-.356.18 0 .075.022.082.164.059a2.46 2.46 0 00.218-.045zm-.232-.228c.018-.018.085-.032.148-.032.109 0 .115-.012.102-.175a.681.681 0 00-.034-.195c-.011-.01-.082.004-.157.032-.076.029-.148.042-.16.029-.038-.037.093-.105.202-.106.057 0 .099-.027.099-.064 0-.21-.344-2.473-.411-2.706-.044-.151-.067-.173-.18-.173-.109 0-.132.02-.144.118-.007.065-.033.118-.057.118s-.032-.017-.02-.039c.014-.02-.007-.065-.046-.097-.064-.053-.067-.043-.038.093.047.218.062.23.183.151.06-.04.119-.061.131-.049.039.039-.033.12-.143.161-.058.022-.105.072-.105.112 0 .057.028.067.142.045l.142-.026-.103.087c-.091.076-.1.11-.073.287l.03.2.15-.028c.092-.017.149-.01.149.018 0 .025-.06.046-.131.046-.112 0-.131.016-.131.11 0 .104.01.11.163.088.155-.023.158-.02.055.03-.208.105-.226.124-.174.188.027.032.072.052.1.043.171-.052.292-.063.292-.026 0 .023-.073.048-.163.055-.15.012-.165.026-.178.155-.015.156-.002.165.13.095.064-.035.103-.035.137 0 .034.033.007.054-.092.074-.097.02-.14.053-.14.11 0 .065.033.082.156.082.092 0 .144.017.128.043-.014.024-.086.044-.158.044-.102 0-.128.017-.116.076.011.055.05.073.134.064.15-.016.156.067.007.105-.072.018-.106.052-.097.099.012.055.057.068.204.056.127-.01.18.001.16.033-.016.026-.066.047-.11.047-.192 0-.225.044-.194.256.017.11.035.24.04.289a.72.72 0 00.016.1c.012.024.124.008.155-.023zm.003-.185c.015-.024.046-.044.068-.044.023 0 .041.02.041.044 0 .024-.03.043-.068.043-.037 0-.056-.02-.04-.043zm-.415-2.272c0-.06.115-.1.178-.062.036.022.034.041-.01.068-.08.052-.168.049-.168-.006zm9.275 1.98c.094-.106.305-.272.47-.368.383-.224.435-.305.418-.651l-.013-.273-.698-.32c-.384-.177-.948-.4-1.253-.497-.305-.097-.566-.195-.58-.218-.014-.022.059-.083.161-.135.327-.164.704-.402.936-.59.123-.1.249-.19.279-.2.077-.026.012-.2-.097-.259-.05-.026-.289-.065-.532-.086-.525-.045-1.38-.176-1.38-.212 0-.013.265-.122.59-.24.614-.225.779-.325.733-.445-.024-.063-.014-.062.088.005.098.064.116.065.116.011 0-.197-.378-.465-.75-.533l-.252-.045.064-.125c.096-.185.01-.465-.143-.465-.037 0-.212.07-.39.157-.228.109-.35.197-.407.295-.07.119-.296.297-.403.317l-.065.013c-.018.003-.004.025.033.048.036.023.281.043.545.044.519.001 1.132.085 1.374.188l.15.065-.153.064a7.667 7.667 0 01-.555.182c-.545.16-.86.288-1.262.51l-.34.19.532.071c.293.04.867.107 1.276.15.41.044.77.096.8.115.074.048.025.078-.49.302-.228.1-.484.237-.568.306-.084.07-.246.168-.36.219-.352.158-.29.216.393.374.871.2 1.554.478 2.033.826.157.115.206.177.196.249-.012.083-.045.098-.254.11a5.108 5.108 0 01-.742-.058c-.604-.085-1.13-.1-1.397-.04l-.196.044.231.118c.225.114.36.216.982.742.165.14.357.264.427.278.077.016.129.054.13.097.001.054.02.046.076-.032.041-.056.152-.19.247-.297zm-13.228.038c-.147-.124-.378-.276-.395-.259-.01.011.074.082.189.157.199.13.296.178.206.102zm.73-.71c.005-.48-.108-.7-.443-.855l-.11-.051.11-.004a1 1 0 01.25.037c.082.024.142.024.142.002 0-.049-.375-.162-.72-.217-.373-.06-.938-.21-.808-.215.06-.003.192-.033.292-.068a3.8 3.8 0 01.59-.113c.745-.09.797-.125.166-.11-.324.007-.629.029-.677.05-.077.031-.08.027-.029-.036.032-.039.253-.134.492-.212.238-.078.412-.155.386-.171-.05-.03-.578.065-.667.12a.374.374 0 01-.172.02.39.39 0 00-.218.057.373.373 0 01-.172.067c-.112 0-.139.16-.141.85l-.003.608.568.237c.64.267 1.075.406 1.125.36.02-.018.036-.178.038-.356zm-25.046-.112c-.225-.474-.416-.801-.468-.801-.018 0 .013.073.069.163.056.09.206.376.333.636.126.26.24.463.25.452.011-.011-.072-.214-.184-.45zm2.566-1.03c.181-.16.397-.332.48-.381.184-.109.741-.307.862-.307.049 0 .089-.02.089-.046 0-.06-.247-.016-.624.112-.275.094-.686.369-.686.46 0 .02-.182.185-.404.365-.222.18-.461.401-.531.492-.096.124-.05.094.178-.117.169-.156.455-.416.636-.577zm-.376-.133c.459-.248.589-.345.566-.424-.075-.26-.522-1.394-.62-1.574a1.5 1.5 0 00-.257-.342c-.075-.065-.128-.144-.118-.175.02-.058-.386.21-.64.424-.148.124-.148.124-.078.273.038.082.1.297.14.477.09.414.164.638.344 1.048.08.18.156.361.17.404.039.112.108.096.493-.111zm34.875-.09c-.119-.08-.24-.12-.24-.08 0 .02.055.056.121.082.17.067.22.066.119-.002zm-18.554-.053c.078-.06.649-.248 1.486-.492.708-.207 2.706-.582 3.754-.705l.915-.111c.287-.036.539-.065.56-.065.038 0 .033-.073-.104-1.528-.124-1.304-.11-1.266-.472-1.266-.273 0-2.182.25-2.856.373-.974.179-2.32.595-2.96.917-.481.242-.737.421-.737.518 0 .2.135 1.725.18 2.034.063.433.073.447.234.325zm.536-.94c-.089-.051-.105-.3-.024-.38.086-.087.16-.06.235.084.054.106.06.16.023.24-.05.112-.113.127-.234.056zm.134-.178c-.018-.12-.123-.16-.123-.047 0 .09.035.142.098.142.021 0 .033-.043.025-.095zm1.852-.523c-.03-.03-.054-.118-.054-.195 0-.122.018-.145.135-.17.174-.039.223.014.206.224-.012.144-.03.171-.123.182-.06.007-.134-.012-.164-.041zm.2-.154c-.02-.17-.123-.185-.123-.018 0 .093.02.135.068.135.049 0 .064-.034.055-.117zm-2.347-.076c-.028-.035-.046-.148-.038-.252.012-.17.025-.19.136-.202.156-.018.249.058.248.205 0 .139-.035.195-.16.26-.12.064-.124.064-.186-.011zm.207-.236c.012-.116-.001-.139-.076-.139-.06 0-.09.028-.09.084 0 .243.143.29.166.055zm4.34-.017c-.065-.064-.07-.325-.007-.363.096-.06.249.02.272.142.042.22-.127.36-.266.221zm.131-.217c-.028-.029-.064-.04-.08-.024-.015.016-.015.062.001.103.022.057.04.062.08.024.038-.04.038-.064-.001-.103zm1.46.038a14.907 14.907 0 01-.046-.885c-.02-.687-.015-.657.065.41.048.649.036.947-.02.475zm-4.072-.442c-.072-.188.135-.426.31-.358.054.02.068.073.058.213-.013.18-.018.186-.178.2-.117.01-.171-.006-.19-.055zm.245-.158c0-.07-.02-.129-.044-.129-.024 0-.043.07-.043.156 0 .092.017.144.043.128.024-.015.044-.085.044-.155zm2.104-.31c.016-.21.118-.306.243-.229.083.053.135.41.06.41-.025 0-.05-.073-.058-.163-.01-.118-.036-.168-.094-.179-.072-.013-.078.005-.051.164.025.149.018.178-.042.178-.057 0-.069-.036-.058-.18zm9.203 2.55c0-.182-.127-1.604-.177-1.974-.054-.401-.105-.483-.408-.647-.606-.328-2.07-.795-2.491-.795h-.143l.06.25c.06.254.119.616.284 1.736.058.392.113.63.154.662.035.027.283.103.552.167.592.143 1.511.452 1.802.607.28.15.367.148.367-.006zm-.756-1.05a.195.195 0 01-.045-.174c.033-.127.077-.122.14.014.098.217.043.312-.095.16zm-.793-.342c-.048-.048-.057-.086-.028-.115.057-.058.18-.008.18.073 0 .1-.073.12-.152.042zm-.896-.319c0-.053.161-.104.218-.068.087.053.042.109-.087.109-.072 0-.13-.018-.13-.04zm1.531-.37c-.03-.036-.041-.086-.026-.111.043-.069.154-.055.154.02 0 .036.002.08.003.097.007.062-.078.058-.131-.007zm-.745-.334c0-.112.145-.1.166.014.01.053-.013.076-.075.076-.063 0-.091-.028-.091-.09zm-.819-.157c-.03-.012-.054-.051-.054-.087 0-.045.037-.06.12-.05.07.007.12.04.12.078 0 .068-.093.098-.186.06zm-1.117 2.375c-.012-.03-.022-.005-.022.055s.01.084.022.054a.168.168 0 000-.109zm-2.817-.184c.341-.156.93-.212 2.001-.19.76.015.925.03 1.02.093.234.153.51.032.51-.225 0-.233-.31-2.133-.412-2.524-.066-.257-.123-.35-.309-.505-.173-.144-.306-.185-.554-.17-.31.02-.386-.017-.355-.172l.025-.128h-.222c-.176 0-.217.013-.198.063.013.034.083.075.155.091.223.05.07.12-.302.142l-.341.02-.053-.759c-.03-.417-.082-1.101-.118-1.522l-.13-1.571c-.037-.444-.107-1.191-.155-1.66-.048-.467-.094-.93-.102-1.025-.01-.124-.016-.099-.022.087-.004.144.042.802.102 1.463.253 2.8.422 4.936.393 4.968-.02.023-.545.087-.973.119-.31.023-.46.057-.633.145-.218.11-.228.124-.242.312-.02.253.163 2.677.217 2.892.04.161.045.164.252.164.132 0 .3-.04.446-.108zm2.973-.547c0-.084.01-.118.02-.076a.359.359 0 010 .152c-.01.042-.02.008-.02-.076zm-2.738-.044c-.015-.024-.007-.043.019-.043.025 0 .046.02.046.043 0 .024-.009.044-.02.044-.01 0-.03-.02-.045-.044zm1.554 0c.375-.017.704-.044.731-.061.03-.018.05-.003.05.037 0 .06-.095.067-.731.061l-.731-.007zm.68-.327a2.487 2.487 0 00-.08-.252c-.046-.115-.058-.12-.26-.092-.18.023-.214.016-.214-.043 0-.057.047-.072.237-.072h.236l.073.191c.04.105.066.238.057.295-.014.097-.018.095-.049-.027zm-2.278-.142c0-.229 0-.23.221-.23.148 0 .155.007.142.138-.01.099-.044.148-.12.176-.103.038-.104.036-.032-.043.091-.1.054-.258-.041-.179a.19.19 0 00-.06.129c0 .099-.045.216-.082.216-.015 0-.028-.093-.028-.207zm2.688-.08c.002-.05.013-.061.027-.026.012.031.01.069-.004.083-.014.015-.025-.011-.023-.057zm-.043-.218c.002-.051.012-.061.026-.027.013.032.011.07-.003.084-.015.015-.025-.011-.023-.057zm-.064-.295c-.05-.31-.242-1.032-.312-1.167a.31.31 0 00-.16-.144c-.305-.081-2.124.007-2.247.109-.033.027-.06.026-.079-.003-.015-.026.017-.065.073-.088.269-.112 1.996-.182 2.237-.09.2.076.318.344.481 1.103.04.187.066.373.057.415-.01.042-.032-.019-.05-.134zm-.813-.286c-.148-.026-.153-.034-.166-.24-.01-.143.005-.227.043-.251.101-.064.25-.04.296.047.052.096.062.486.013.477l-.186-.033zm.066-.226c0-.107-.022-.153-.077-.164-.06-.011-.076.016-.076.134 0 .082.013.163.03.18.064.063.123-.008.123-.15zm-1.919.17a1.944 1.944 0 01-.107-.538c.004-.12.009-.114.054.053.028.1.087.21.131.242.05.036.075.099.066.162-.017.116-.114.17-.144.081zm-27.412.847c-.64-1.333-1.032-2.484-1.032-3.03 0-.29.157-.636.54-1.188.15-.219.389-.594.528-.834.184-.316.372-.559.679-.876.456-.472.533-.587.614-.919.106-.43.343-.732.73-.93.188-.096.197-.118.355-.863.122-.578.362-1.014.873-1.586a6.5 6.5 0 00.53-.698c.366-.577.546-.825.67-.922.145-.114.285-.362.466-.824.174-.448.325-.691.73-1.176.168-.203.4-.527.515-.72.114-.194.283-.442.374-.552.124-.148.167-.239.167-.353 0-.247.16-.806.315-1.097.205-.385.67-1.024 1.11-1.527.347-.394.387-.426.438-.356.032.043.057.057.057.03 0-.026.04-.037.088-.025.11.029.115-.08.022-.438-.1-.381-.085-.537.072-.783l.139-.215-.073-.29c-.106-.42-.013-.942.24-1.351.061-.099.074-.146.036-.133-.107.035-.346.532-.417.866-.039.18-.097.415-.13.523-.034.108-.112.45-.174.76-.062.31-.154.644-.204.742-.05.099-.364.59-.698 1.091-.642.963-.765 1.18-1.021 1.801a12.97 12.97 0 01-1.137 2.111c-.232.348-.536.835-.676 1.08-.14.247-.364.586-.499.755a6.871 6.871 0 00-.503.77 4.262 4.262 0 01-.491.708c-.384.403-.63.773-.997 1.498-.191.379-.457.831-.59 1.006a5.778 5.778 0 00-.456.743c-.119.234-.445.748-.725 1.142-.58.816-1.596 2.55-1.7 2.903-.13.445-.06.718.515 1.987.321.708 1.06 2.088 1.077 2.01.008-.036-.153-.414-.357-.84zm2.11.58c.057-.06.093-.12.081-.132-.012-.012-.074.037-.139.11-.14.157-.087.177.059.021zm18.25-1.777c-.03-.128-.11-.432-.18-.677a9.812 9.812 0 01-.194-.83c-.284-1.63-1.96-4.82-3.491-6.649-.486-.58-.783-.992-1.068-1.486-.318-.55-.351-.533-.043.023.211.381.643.985 1.052 1.473.83.99 1.74 2.414 2.376 3.723.707 1.455 1.006 2.238 1.13 2.961.035.212.114.546.173.742.06.197.13.455.155.575.083.39.093.426.118.4.014-.013 0-.128-.028-.255zm16.08-.037c.027 0 .1-.04.16-.088l.108-.088-.166.029c-.137.023-.185.01-.273-.073-.174-.163-.047-.38.399-.677.268-.179.345-.307.307-.512-.06-.32-.427-.68-1.096-1.076-.687-.408-1.18-.807-1.316-1.065-.087-.165-.12-.12-.084.119.037.246.26.47.876.88.528.352.957.695 1.054.844.07.105.068.112-.055.21-.069.055-.146.096-.17.09a.657.657 0 00-.22.062c-.094.04-.235.095-.311.124a.64.64 0 00-.218.142c-.077.088-.077.09 0 .062.045-.016.132-.043.195-.058.11-.028.107-.02-.062.178l-.178.208.229.236c.126.13.26.236.3.236.04 0 .083.03.097.065.014.036.042.055.063.042.02-.013.072.017.115.067.042.05.103.08.135.067a.393.393 0 01.11-.024zm-3.51-.413l-.027-.35-.007.332c-.004.182.006.344.022.36.042.042.042.04.012-.342zm-30.444.035c.187-.09.404-.162.482-.162.078 0 .132-.016.12-.035a.08.08 0 00-.061-.035c-.022 0-.233-.108-.47-.24-.473-.266-1.066-.498-1.729-.675l-.432-.116.516-.23c.667-.297 1.021-.38 1.876-.443.762-.055 1.063-.11.993-.179-.027-.027-.442-.038-1.108-.03l-1.064.014-.393.213c-.6.326-.848.497-.905.622-.046.1-.04.124.04.19.1.08.469.217 1.17.434.52.16.83.298.7.31-.049.004-.383.005-.743.002l-.655-.005.502.22.59.26c.146.067.217.053.57-.115zm15.249-.552c.033-.273.033-.448 0-.603-.026-.12-.053-.212-.06-.204a9.605 9.605 0 00-.064.669c-.028.36-.06.704-.07.764-.013.073.008.052.064-.066.046-.096.104-.348.13-.56zm20.392.394c0-.008-.064-.071-.142-.142l-.142-.128.129.142c.12.132.155.162.155.128zm-14.073-.386c-.072-.689-.418-2.244-.598-2.691-.074-.182-.178-.758-.262-1.448-.087-.714-.205-1.404-.246-1.442-.014-.012-.013.047.001.13.014.085.04.279.056.431l.03.278-.258-.026c-.694-.07-1.985-.164-2.096-.15-.155.017.895.188 1.68.273.321.035.59.069.597.076.013.014.032.361.025.465-.004.046-.076.052-.343.029-.31-.027-1.23-.126-1.648-.178-.11-.013-.062.01.131.063.473.13 1.682.53 1.884.625.155.072.189.114.238.29.031.112.064.225.072.25.007.025-.336-.068-.763-.207a27.255 27.255 0 00-1.584-.452c-.444-.11-.847-.21-.895-.223-.177-.05.007.06.393.233.72.325 2.109.802 2.575.885.143.025.283.07.311.1.066.071.236.61.236.748 0 .098-.012.105-.123.073a5.593 5.593 0 01-.563-.26 3.44 3.44 0 00-.848-.314c-.465-.102-.998-.169-.998-.124 0 .055.76.68 1.375 1.13.817.597.816.594.262.351-.416-.183-1.3-.482-1.252-.424.113.136.788.584 1.423.945.375.213.709.41.742.437.077.064.11.238.06.326-.033.06-.007.07.188.07h.226zm.23-.279a2.685 2.685 0 00-.06-.322c-.028-.09-.024-.089.133.017.182.124.476.216.571.18.035-.014.051-.006.037.018-.015.024.013.043.063.043.127 0 .114-.022-.097-.168a2.879 2.879 0 01-.334-.275c-.133-.132-.144-.137-.121-.044.024.099.021.1-.06.026-.046-.042-.084-.1-.084-.131 0-.03-.05-.115-.111-.188-.119-.141-.326-.86-.41-1.424l-.07-.45c-.024-.137-.02-.141.098-.114.208.048.85.33 1.148.506l.284.167-.219-.2c-.267-.244-.457-.379-.94-.664-.238-.14-.394-.263-.427-.337-.03-.064-.038-.11-.02-.101.235.107 1.68.854 1.803.931.17.107.48.248.48.218 0-.061-1.076-.798-1.658-1.136-.459-.266-.708-.506-.788-.757-.055-.173-.053-.196.015-.246.067-.05.055-.058-.102-.073l-.179-.017.027.176c.087.578.165.996.258 1.39.059.244.157.71.22 1.034.353 1.83.491 2.402.545 2.253a.949.949 0 00-.001-.312zm8.592-.03c-.01-.079-.017-.025-.018.12 0 .143.008.207.018.142.01-.066.01-.184 0-.262zm-28.82.056c-.109-.12-.604-.407-.94-.546-.33-.136-.792-.184-1.25-.131-.165.02-.261.043-.213.052.627.123 2.265.59 2.355.672.083.076.123.036.048-.047zm25.626-.728c-.095-.898-.31-2.474-.417-3.05-.05-.265-.12-.648-.156-.852-.31-1.754-.384-2.122-.442-2.212-.073-.112-.053-.387.038-.534.07-.112.015-.235-.091-.202-.068.022-.08.01-.06-.063.017-.065.047-.083.105-.065.058.019.082.005.082-.048 0-.17.373-1.247.553-1.598.218-.425.224-.452.143-.757-.072-.27-.106-.313-.19-.243-.059.049-.059.066 0 .155.092.141.146.35.106.416-.027.042-.075.032-.209-.043-.162-.092-.215-.097-.78-.081-.459.013-.641.036-.754.092a.692.692 0 01-.226.075c-.068 0-.056.046.088.339.238.484.418.907.523 1.23.109.333.11.352.026.352-.108 0-.074.075.076.169.078.048.21.16.295.249.132.139.138.153.044.106a1.417 1.417 0 01-.257-.19l-.146-.137.025.24c.014.132.038.412.054.622.015.21.045.382.065.382.02 0 .137-.04.258-.087.167-.066.226-.074.239-.033.039.122.1.58.082.611-.011.018-.135.033-.276.033-.247 0-.258-.005-.275-.12-.052-.346-.026.319.042 1.05l.077.821.285-.03a1.58 1.58 0 00.362-.07c.114-.059.15-.017.206.237.068.314.391 2.705.458 3.394.034.35.069.537.095.51.01-.01-.011-.311-.048-.668zm-1.096-3.81c-.01-.01-.02-.17-.02-.354 0-.27.016-.35.08-.408.083-.075.182-.096.183-.04 0 .05.085.588.109.695.018.082-.001.096-.156.11a.545.545 0 01-.196-.002zm-.281-3.104c-.056-.036-.055-.042.01-.043.043 0 .077.019.077.043 0 .053-.005.053-.087 0zM5.194 40.483c0-.01-.034-.044-.076-.077-.07-.054-.071-.052-.017.017.057.073.093.096.093.06zm25.408-.066c0-.103-.068-.13-.251-.104-.21.031-.18.134.043.154.102.01.19.02.197.025.006.004.01-.03.01-.075zm0-.242c0-.083-.234-.13-.347-.07-.15.08-.1.132.128.132.16 0 .219-.016.219-.062zM4.72 40.126a.732.732 0 00-.197-.061c-.069.002.198.121.278.123.036.001 0-.026-.081-.062zm25.881-.144c-.002-.087-.086-.119-.27-.103-.148.013-.197.033-.181.076.023.06.452.085.451.027zm-4.78-.138a.104.104 0 00-.079-.043c-.029 0-.078-.041-.11-.092-.065-.105-.11-.089-.068.024a.24.24 0 00.122.112c.126.051.167.051.135 0zm4.737-.13c0-.075-.029-.088-.194-.088-.2 0-.299.069-.194.135a.562.562 0 00.224.039c.135 0 .164-.015.164-.087zm-.023-.21c.028-.073-.063-.106-.245-.088-.093.009-.15.04-.16.085-.01.057.024.07.185.065.116-.003.207-.029.22-.062zm-.02-.256c0-.048-.05-.06-.205-.05-.202.013-.309.101-.158.13.154.03.362-.016.362-.08zm-.044-.209c0-.097-.013-.104-.164-.083-.223.03-.273.049-.273.098 0 .044.117.076.317.086.1.005.12-.012.12-.1zm3.655-.559c-.009-.102-.017-.018-.017.186s.008.287.017.185c.01-.102.01-.269 0-.37zm-3.715-.005c-.051-.747-.08-1.01-.116-1.048-.02-.021-.127-.025-.238-.008-.182.027-.199.04-.172.125.035.116.003.095.237.15l.196.044-.207.006c-.236.006-.29.105-.088.158.119.03.119.032.022.069-.054.02-.098.07-.098.11 0 .06.031.068.175.049.099-.013.164-.006.15.016-.014.022-.068.04-.12.04-.132.001-.223.066-.183.13.022.036.092.045.213.026.127-.019.16-.014.114.017a.353.353 0 01-.164.044c-.078 0-.098.026-.098.124 0 .113.012.122.142.11l.142-.015-.142.066c-.14.064-.189.173-.093.205a.716.716 0 00.202-.002l.154-.018-.028-.398zm-26.287.296a3.69 3.69 0 00-.502-.3 4.542 4.542 0 01-.458-.26c-.086-.069-.084-.073.075-.215.125-.112.252-.167.548-.24.683-.167.942-.123 1.887.323l.502.237-.205-.191c-.3-.278-.863-.54-1.285-.597a2.237 2.237 0 01-.52-.131c-.286-.136-.313-.128-1.002.3-.47.293-.851.572-.851.625 0 .042.171.042.37 0 .097-.021.196.003.372.092.275.137 1.091.467 1.157.467.024 0-.016-.05-.088-.11zm20.227-.307c-.04-.039-.412-.188-.828-.33-.964-.33-.98-.334-.692-.162.243.145 1.346.556 1.505.56.079.002.08-.003.015-.068zm14.697-.15c-.04-.076-.167-.386-.284-.69a61.917 61.917 0 00-.39-.986 47.501 47.501 0 01-.64-1.812 96.905 96.905 0 00-1.008-2.873c-.038-.103-.075-.181-.082-.174-.017.017.114.616.264 1.215.135.538.975 3.034 1.288 3.828.201.511.34.781.747 1.459.154.255.233.28.105.034zm-4.966-.4c-.01-.08-.018-.025-.018.119s.008.208.018.142c.01-.065.01-.183 0-.262zm-.044-.437c-.01-.055-.02-.02-.02.075 0 .096.008.14.019.1a.476.476 0 000-.176zm-29.086-.391a6.657 6.657 0 00-.343-.42l-.135-.144.107-.081c.059-.045.32-.143.582-.218a8.31 8.31 0 00.986-.374c.477-.222.67-.278 1.573-.462.198-.04.287-.083.173-.083-.035 0-.298.031-.586.069-.544.071-.824.066-1.155-.024-.292-.08-1.086-.029-1.298.083-.162.086-.163.087-.041.088.168.003.292.077.292.174 0 .054-.086.13-.251.223-.345.194-.445.278-.54.454l-.08.15.145.174c.08.096.265.273.41.395.146.12.279.241.295.268.016.026.04.037.051.025.013-.012-.071-.146-.185-.297zm29.01-.217c-.03-.213-.064-.38-.074-.369-.01.01.006.21.037.445.03.234.064.4.074.369.01-.031-.006-.231-.037-.445zm-3.632.392c-.015-.046-.118-.091-.416-.185-.087-.028-.098-.017-.098.102v.134h.265c.184 0 .26-.016.25-.05zm-.034-.32c0-.104-.012-.109-.262-.109-.204 0-.262.015-.262.066 0 .046.048.065.164.066.09 0 .193.02.23.043.102.066.13.052.13-.066zm-8.088-.179c-.015-.014-.052-.016-.084-.003-.035.014-.024.024.027.026.046.002.071-.008.057-.023zm2.871-.28A.102.102 0 0025 36.44c-.031 0-.026.017.014.043.084.054.099.054.065 0zm8.881-.294c.002-.054-.016-.098-.04-.098s-.043.083-.041.185c.002.144.012.166.04.099a.611.611 0 00.041-.186zm-7.877-.23c.647-.038.827-.066 1.397-.218.65-.173.652-.174.328-.149-.18.014-.416.043-.524.065a13.48 13.48 0 01-.764.104c-.577.066-1.415.222-1.46.271-.013.015.044.015.128-.002.084-.016.487-.048.895-.072zm7.893.001c.012-.048.005-.087-.017-.087-.022 0-.04.039-.04.087 0 .048.008.087.017.087.01 0 .027-.039.04-.087zm-9.283-.447c-.012-.03-.022-.006-.022.054s.01.085.022.055a.168.168 0 000-.11zm9.442-.142c0-.024-.029-.006-.064.04a.306.306 0 00-.063.154c.002.074.127-.117.127-.194zm-9.79-.03c-.014-.035-.024-.025-.026.026-.002.046.008.072.023.057.014-.014.016-.052.003-.083zm-.071-.278c-.021-.07-.04-.096-.042-.056-.005.081.042.223.065.2.009-.009-.002-.073-.023-.144zm10.27-.293c.282-.407.525-.795.35-.557-.404.547-.685.961-.652.961.013 0 .148-.181.302-.404zm-10.33.047c-.014-.035-.024-.025-.026.026-.002.046.008.072.023.057.014-.014.016-.052.003-.083zm5.667-.035c.015-.025-.002-.032-.041-.017-.076.029-.09.06-.027.06.023 0 .053-.02.068-.043zm-5.71-.14c-.014-.035-.025-.024-.027.027-.002.046.008.071.023.057.015-.015.016-.052.003-.084zm-16.784-.055c.048-.034.11-.1.137-.146.168-.29.206-.369.185-.39-.053-.052-.533-.06-.882-.014-.538.072-1.396.4-1.447.555-.026.082 1.89.076 2.007-.005zm16.726-.193c-.015-.077-.037-.13-.048-.12-.01.012-.006.083.01.158.017.075.038.13.048.12.01-.01.006-.081-.01-.158zm-.228-.949a368.15 368.15 0 00-.413-1.654c-.134-.528-.255-1.108-.269-1.288-.06-.77-.158-1.09-.344-1.127-.055-.011-.072.02-.071.13 0 .209.158.838.26 1.038.048.094.177.52.287.949.11.428.266 1.024.345 1.324.08.3.19.74.246.978.055.239.107.413.116.389.008-.025-.063-.357-.157-.739zm.546.496c-.012-.03-.022-.006-.022.054s.01.085.022.055a.168.168 0 000-.11zm4.717-.153c-.011-.042-.02-.008-.02.076 0 .085.009.119.02.077a.358.358 0 000-.153zm1.06.164c0-.024-.02-.044-.045-.044-.026 0-.034.02-.02.044.015.024.036.043.047.043.01 0 .019-.02.019-.043zm4.89-.044c.026-.048.037-.087.025-.087-.012 0-.043.04-.068.087-.026.048-.037.087-.025.087.012 0 .043-.039.068-.087zm-10.803-.598c-.063-.26-.212-.802-.332-1.206-.275-.926-.355-1.27-.323-1.393.015-.06.129-.164.284-.26.328-.205.34-.296.059-.462l-.47-.278c-.147-.088-.274-.153-.283-.145-.033.032.098.67.197.959.157.458.784 2.614.873 3.005.043.188.085.322.093.297.008-.025-.036-.257-.098-.517zm6.063.23c.052-.122.595-.759 1.118-1.313.252-.266.869-1.032 1.142-1.418.11-.156.406-.648.657-1.092.993-1.753 1.307-2.572 1.11-2.894-.034-.053-.084-.244-.114-.424-.178-1.088-.339-1.484-.602-1.484h-.106l.093.15c.154.25.568 1.569.51 1.627-.01.01-.123-.06-.25-.157a3.308 3.308 0 00-.387-.253c-.302-.153-.946-.6-1.353-.939-.882-.733-1.924-1.345-1.924-1.13 0 .022.182.138.404.258a10.16 10.16 0 011.474.966c.439.347 1.419 1.011 1.869 1.268.175.1.33.208.342.24.012.033-.008.125-.044.204-.101.224-.323.787-.357.91-.081.287-.627 1.301-.963 1.79-1.033 1.498-1.469 2.093-1.853 2.531-.306.348-.959 1.277-.959 1.363 0 .078.134-.062.193-.202zm-1.286-.307c-.032-.228-.066-.406-.077-.396-.011.011.006.207.037.436s.066.407.077.396c.01-.01-.006-.207-.037-.436zm-21.167.217c.105-.06.246-.13.312-.157.167-.067.161-.208-.01-.242-.07-.015-.127-.039-.125-.054.012-.097-.02-.137-.107-.137-.055 0-.12-.02-.144-.043-.046-.046-.61.1-.956.248-.213.09-.415.225-.415.275 0 .04.276.107.698.172.414.063.544.053.747-.062zm21.316-.967c-.067-.134-.13-.221-.138-.195-.01.027-.054.049-.1.049-.046 0-.084.029-.084.065 0 .074.069.088.11.022.014-.024.044-.044.066-.044.06 0 .182.257.148.312-.016.026-.002.064.03.085.107.066.095-.043-.032-.294zm-.19.203a.044.044 0 00-.045-.044.044.044 0 00-.043.044c0 .024.02.043.043.043.024 0 .044-.02.044-.043zm-20.934-.358c.572-.143 1.678-.672 1.857-.888.041-.05.025-.053-.096-.018-.08.023-.243.042-.364.042-.259 0-1.043.172-1.508.33-.315.107-.653.342-.653.453 0 .025.06.046.132.046.076 0 .143.027.157.063.026.067.116.061.475-.028zm20.869-.323c-.037-.07-.066-.1-.067-.066 0 .094-.169-.074-.256-.253a.59.59 0 00-.217-.226 1.69 1.69 0 01-.284-.203c-.19-.172-1.366-.944-1.675-1.098-.788-.394-1.392-.665-1.912-.857-.216-.08-.5-.193-.633-.252-.224-.1-.432-.168-1.2-.389-.477-.137-.951-.245-1.68-.383-.296-.056-.473-.071-.5-.044-.062.062-.112.052-.112-.023 0-.037-.043-.068-.098-.072l-.21-.015a.634.634 0 01-.21-.062c-.072-.039-.115-.04-.156-.006-.043.036-.064.031-.083-.018a.07.07 0 00-.093-.04c-.038.015-.098.002-.134-.029-.055-.045-.086-.036-.178.05l-.111.105.03-.12c.025-.102.016-.12-.06-.12a.163.163 0 00-.13.071c-.022.04-.062.058-.091.04-.038-.023-.04-.047-.004-.09.058-.069-.014-.13-.11-.093-.033.013-.151-.027-.262-.088-.11-.062-.212-.1-.226-.086-.014.014.011.04.057.056a.362.362 0 01.14.11c.03.044.092.08.136.08.044 0 .09.036.101.081.014.053.079.092.185.112.09.017.196.047.235.066.109.054.336.118.792.221.228.052.47.112.54.134.068.022.143.028.165.014.022-.013.068-.002.1.025.033.027.13.054.214.06.085.005.169.024.186.04.056.057.106.035.147-.066.038-.094.04-.093.042.022.003.141.114.165.155.033.041-.129.124-.109.092.022-.036.142.09.152.15.01l.041-.098-.01.105c-.014.14.088.17.14.04.04-.1.04-.1.043.02.003.125.08.156.167.068.04-.039.058-.034.078.02.015.038.051.06.081.048.03-.011.077.025.104.08l.048.1.03-.1c.04-.133.122-.1.152.06l.023.127.063-.098c.078-.121.113-.124.143-.011.028.108.184.115.245.01.04-.068.045-.067.046.017 0 .051.032.118.07.15.056.047.07.04.092-.04.033-.128.101-.118.101.016 0 .123.051.14.131.043.075-.09.131-.082.131.02 0 .12.08.154.17.072.105-.095.136-.088.136.032 0 .141.045.172.134.091.07-.063.079-.06.105.022.03.097.088.118.132.047.045-.072.097-.05.126.055.022.082.034.087.07.032.035-.052.052-.054.08-.01.02.032.07.044.11.029.053-.02.072-.004.072.063 0 .075.026.09.152.085.11-.005.173.022.235.098.073.09.093.096.158.042.078-.065.078-.064.196.13.034.054.056.056.13.01.074-.045.09-.044.09.006 0 .034.047.092.105.13.092.06.112.06.158.005.074-.089.126-.08.1.017-.016.065.04.11.277.224.164.078.332.172.373.208.041.036.104.054.139.04.035-.013.087.004.115.037.027.034.19.14.363.235.419.232.903.544 1.016.656.05.05.11.09.13.09.022 0 .096.1.164.222.08.142.146.213.184.198.033-.012.072-.002.088.022.06.1.06 0-.002-.118zm-8.798-3.728c0-.024.02-.044.046-.044s.034.02.02.044c-.015.024-.036.043-.047.043-.01 0-.02-.02-.02-.043zm-.24-.044c.015-.024.035-.044.046-.044.01 0 .02.02.02.044 0 .024-.021.044-.047.044-.025 0-.034-.02-.02-.044zm-.524-.131c.015-.024.036-.044.046-.044.01 0 .02.02.02.044 0 .024-.021.044-.047.044-.025 0-.034-.02-.019-.044zm16.03 3.79c-.014-.035-.025-.025-.027.026-.002.046.009.072.023.057.015-.014.016-.052.004-.083zm.012-1.214c-.088-.712-.418-1.55-.79-2.009-.11-.134-.063-.037.095.197.432.641.683 1.555.705 2.564l.01.404.015-.37a5.77 5.77 0 00-.035-.786zm-28.244.654c.18-.052.583-.182.895-.29a31.87 31.87 0 011.222-.385c1.944-.565 2.078-.61 2.358-.79.133-.086.149-.106.065-.086-.06.014-.453.095-.873.18-1.619.328-2.729.639-3.294.922-.26.13-.796.48-.836.544-.017.028.003.037.054.022l.41-.117zm21.008-.293a6.93 6.93 0 00-1.242-1.121c-.928-.684-1.405-.942-2.502-1.352-1.268-.474-2.935-.909-4.953-1.292-.372-.07-.824-.176-1.004-.235a6.761 6.761 0 00-.405-.122c-.066-.013-.05-.06.119-.33.107-.173.331-.497.498-.721.845-1.14 1.859-2.911 1.736-3.034-.036-.036-.028-.05-.257.427-.22.456-.521.924-1.006 1.557-.764 1-1.253 1.832-1.253 2.134 0 .269.241.354 1.89.671.63.121 1.329.261 1.554.311.428.096 2.062.592 3.045.926 1.764.6 2.955 1.3 3.724 2.192.154.178.29.316.3.305.011-.01-.099-.153-.244-.316zm3.909-.207c.22-.199.607-.738.798-1.115.214-.423 1.004-2.428 1.001-2.542 0-.03-.1.198-.219.509-.322.837-1.007 2.1-1.247 2.3-.049.04-.06.03-.061-.054a.374.374 0 00-.043-.17c-.034-.052-.042-.047-.043.031a.43.43 0 01-.104.217l-.104.12.012-.16a.712.712 0 01.037-.198c.013-.021.01-.091-.008-.156-.025-.095-.05-.033-.129.331a7.582 7.582 0 01-.166.645c-.038.108-.074.27-.081.359-.016.196.023.183.357-.117zm3.88-.591c-.05-.806-.517-1.66-1.173-2.142-.162-.118-.315-.215-.342-.215-.026 0 .04.103.145.229.532.634.83 1.11.994 1.585.07.2.277 1.109.31 1.356.003.021.024-.07.047-.202a3.27 3.27 0 00.02-.611zm-20.079.513c-.01-.054-.018-.01-.018.098s.008.152.018.098a.622.622 0 000-.196zm13.016.1c.06-.1.09-.119.13-.08.04.04.051.04.051 0 0-.03-.02-.053-.046-.053-.025 0-.034-.02-.02-.043.062-.1-.054-.029-.217.133-.16.156-.166.172-.076.172.063 0 .127-.047.178-.13zm-.31-.168c-.11-.01-.179-.042-.21-.103-.042-.077-.024-.113.133-.264.1-.096.169-.187.153-.202-.015-.016-.08.035-.145.113-.106.129-.132.139-.287.113l-.172-.029.126.171c.266.363.27.366.427.286l.139-.072zm2.377.026c-.032-.032-.052-.034-.052-.007 0 .059.052.11.08.081.013-.012 0-.046-.028-.074zm.708-.135c.277-.477.384-1.241.269-1.907-.04-.228-.092-.434-.117-.459-.03-.03-.034-.002-.01.087.059.213.03 1.28-.044 1.618-.037.17-.115.439-.173.6-.117.32-.088.343.075.061zm-2.332.033c0-.086.018-.145.04-.131.022.013.029-.017.016-.067-.023-.088-.028-.086-.122.031-.08.1-.09.141-.052.222.066.146.118.122.118-.055zm.304.092a.239.239 0 00.038-.164c-.014-.093-.02-.089-.091.048a1.361 1.361 0 00-.076.164c0 .039.082.008.129-.048zm-6.808-.062c0-.021-.03-.213-.068-.426-.131-.757-.181-.828-.62-.874-.228-.023-.271-.014-.427.093-.161.11-.196.117-.5.095-.19-.014-.612-.104-1.005-.216-1.413-.403-1.814-.522-1.89-.561-.043-.023-.094-.03-.114-.019-.047.03-.008.229.055.281.028.023.473.173.989.334.881.275 1.307.427 1.754.625.32.142.492.203.536.189.023-.007.067.021.098.063.031.043.057.058.057.035 0-.053.164-.07.195-.02.013.021.06.028.105.016.046-.012.096 0 .112.026s.06.047.098.047c.038 0 .132.067.209.15.077.081.188.157.245.168l.138.026c.018.003.033-.011.033-.032zm7.072-.047c0-.047-.02-.097-.044-.112-.024-.015-.043-.069-.043-.12 0-.069-.013-.08-.049-.045-.035.035-.034.09.004.205.055.168.132.21.132.072zm.335-.09c0-.15-.01-.156-.102-.064-.075.074-.049.195.042.195.037 0 .06-.05.06-.131zm.232-.003c0-.022-.02-.04-.043-.04-.024 0-.044.03-.044.067 0 .038.02.056.044.041.024-.014.043-.045.043-.068zm-14.595-.093c-.013-.034-.024-.024-.026.027-.002.046.009.072.023.057.015-.014.016-.052.003-.084zm13.282-.042c.026-.076.038-.148.026-.16-.012-.012-.022 0-.022.029 0 .028-.03.05-.066.05-.04 0-.065.042-.065.11 0 .152.07.136.127-.03zm-.326.03c-.092-.07-.284-.094-.214-.027.038.035.15.073.257.086.023.003.003-.024-.043-.059zm2.169-.079c-.073-.072-.114 0-.046.082.04.049.064.055.076.019.01-.03-.004-.074-.03-.1zm-.283-.053c-.015-.038-.1-.1-.19-.138a.625.625 0 01-.214-.138c-.046-.062-.066-.064-.166-.01-.062.033-.113.087-.113.119 0 .068.07.077.109.014.055-.089.183-.04.254.098.045.086.064.103.05.044-.034-.13.011-.124.14.016.11.118.176.115.13-.005zm-1.054-.022c.066-.073.07-.106.03-.197-.063-.136-.251-.232-.32-.163-.035.035-.023.083.044.178a.493.493 0 01.093.2c0 .094.058.087.153-.018zm-13.83-.12c-.012-.042-.022-.017-.022.055-.001.072.008.106.02.077a.25.25 0 00.001-.131zm13.302.04c.013-.021-.005-.075-.04-.12-.06-.08-.063-.077-.064.036-.001.116.056.161.104.083zm1.772-.006c0-.023-.04-.063-.087-.089-.096-.051-.118-.003-.035.079.063.063.122.068.122.01zm-2.434-.117a.168.168 0 00-.109 0c-.03.012-.005.022.055.022s.084-.01.054-.022zm-12.838-.984a25.122 25.122 0 01-.22-1.28 5.236 5.236 0 00-.11-.61l-.282-1.01c-.292-1.047-.464-1.615-.552-1.828-.04-.096-.291-.562-.56-1.036-.33-.58-.512-.861-.562-.862-.121-.002-.13.07-.03.247.608 1.08.97 2.054 1.582 4.248.083.3.27.886.413 1.302.143.415.306.992.362 1.28.056.29.108.506.117.48.008-.025-.063-.444-.158-.931zm-6.1.877c.095-.027.305-.151.466-.277.161-.126.457-.31.657-.407.393-.191 1.243-.49 1.401-.492.07 0 .035-.034-.13-.12a32.98 32.98 0 01-.458-.245c-.4-.218-.806-.333-1.352-.38-.469-.041-.522-.038-.674.04l-.165.084.139.072c.076.04.372.158.656.262.284.105.564.215.621.246l.104.056-.18.16a2.82 2.82 0 01-.457.307c-.42.221-1.046.654-1.017.7.034.055.176.053.39-.006zm18.556-.04c.072-.02.281-.048.464-.064l.334-.029-.062-.236c-.186-.714-.693-1.559-1.289-2.147-.572-.566-1.026-.875-1.855-1.262-.413-.193-2.23-.827-2.266-.791-.028.028.262.288 1.227 1.103 1.248 1.053 1.985 1.832 2.684 2.837.385.554.49.675.567.647.036-.012.124-.039.196-.058zm2.03-.13c.492-.008.987-.014 1.099-.014.192 0 .207-.008.272-.157.206-.474.208-1.207.005-1.837a7.19 7.19 0 00-1.22-2.222c-.287-.357-.807-.859-1.466-1.416a42.357 42.357 0 01-.938-.821c-.636-.578-.863-.742-1.057-.76l-.166-.016-.013.22c-.007.124.01.246.038.281.103.125-.083.411-.447.688-.142.108-.187.12-.372.096l-.21-.026.175.095c.282.153.487.333.564.495.082.175.055.354-.064.418-.108.058-.764.054-.98-.006-.213-.06-.493-.33-.53-.514-.027-.135-.152-.19-.212-.092-.075.12-.502.023-.853-.194-.227-.14-.467-.24-.894-.373a2.519 2.519 0 01-.436-.213c-.204-.125-.265-.187-.276-.28-.016-.14.036-.152.142-.034.09.098.3.18.357.14.022-.016.088-.102.148-.192.113-.168.151-.193.195-.123.013.022-.018.07-.07.107-.085.06-.088.07-.023.095.047.019.102-.008.157-.074.058-.072.098-.09.13-.058.032.032.014.093-.062.205-.098.144-.11.295-.021.295.019 0 .077-.083.13-.185a1 1 0 01.19-.263c.091-.074.092-.078.012-.14-.116-.088-.756-.312-.976-.34-.252-.032-.241.05.022.176.187.089.157.1-.077.027-.126-.039-.109.055.026.143.091.06.13.064.197.022.085-.053.103-.023.056.098-.014.038-.053.07-.086.07-.075 0-.38-.14-.417-.192-.027-.037-.107.222-.09.29.005.017-.043.16-.106.316-.11.277-.111.288-.036.403.096.146.845.895 1.114 1.114.153.124.37.22.917.407 1.574.536 2.079.747 2.681 1.123 1.032.644 1.952 1.81 2.268 2.872.088.297.188.452.257.399.028-.023.454-.047.946-.054zM18.064 28.39c.038-.05.11-.309.164-.59.022-.113.015-.142-.03-.127-.065.021-.108.137-.149.399-.051.332-.07.114-.023-.263l.049-.386-.154-.135c-.171-.151-.183-.216-.087-.49.07-.2.418-.872.55-1.062a.566.566 0 00.081-.143c0-.015.08-.159.178-.32.098-.162.149-.265.114-.229-.126.128-.903 1.24-.903 1.29 0 .062-.129.178-.136.123-.002-.02-.012-.156-.021-.3l-.02-.305a1.78 1.78 0 01.085-.516c.067-.17.063-.227-.011-.166-.046.038-.073.034-.115-.017-.045-.054-.068-.056-.122-.011-.036.03-.078.05-.092.045-.044-.018-.51.445-.596.592-.178.3-.164.135.044-.51.065-.2.108-.373.097-.385-.025-.025-.18.38-.228.597-.032.142-.04.125-.114-.24a6.23 6.23 0 01-.091-.961l-.011-.568-.078.219a10.605 10.605 0 00-.487 2.002c-.06.415-.128.842-.153.948-.056.243-.06.544-.004.408.028-.07.067-.086.182-.074l.2.02c.029.004.074.067.1.141.045.126.052.13.108.054.088-.118.153-.05.154.16 0 .134.012.165.043.117a.368.368 0 00.043-.166c0-.056.019-.09.04-.077.05.031.243-.195.357-.418.047-.092.097-.168.111-.168.046 0-.014.318-.152.807-.144.506-.17.666-.093.546.038-.06.054-.032.04.071-.004.03.094.102.138.103.014 0 .05-.054.08-.12l.056-.12.057.131c.035.079.06.102.062.058.003-.062.026-.067.144-.033.078.022.171.03.209.019.052-.017.079.04.12.26.03.154.078.335.108.401.052.113.057.1.086-.22.017-.187.049-.363.07-.39zm.12.457c-.015-.045.025-.256.088-.47.163-.547.167-.565.126-.527-.036.033-.052.073-.236.572-.093.253-.091.507.004.507.024 0 .032-.037.017-.082zm16.32-.409c-.089-.153-.204-.297-.223-.278-.011.012.032.092.098.177.115.152.189.21.125.101zm-22.456-.643c.04-.025.065-.108.065-.207 0-.22.08-.228.598-.062.224.071.534.152.69.178.156.027.328.058.382.07.055.012.098.001.098-.025 0-.026-.142-.218-.315-.427-1.014-1.217-1.826-2.028-1.861-1.858a.322.322 0 01-.077.137.212.212 0 00-.06.123c0 .034-.023.062-.051.062-.028 0-.04.012-.026.026.042.041-.11.192-.195.192-.107 0-.102.2.01.383.11.182.11.185-.027.185-.097 0-.106.01-.06.065.043.053.042.08-.004.136a.394.394 0 00-.072.163c-.03.203-.27.293-.721.27-.25-.014-.25-.013-.223.098.023.092.016.107-.044.084-.04-.015-.072-.012-.072.006 0 .038.895.304 1.288.383.327.065.591.072.677.018zm2.652-.797c-.02-.056-.085-.273-.339-1.146-.144-.498-.562-1.587-.765-1.994-.175-.352-.69-1.167-.751-1.19-.092-.037-.065.028.19.457.45.76.885 1.685 1.127 2.398.13.384.25.718.265.742.1.163-.302-.168-1.006-.828-.599-.56-.657-.611-.713-.611a.05.05 0 01-.049-.051c0-.028-.012-.039-.027-.024s-.096-.001-.18-.036c-.174-.073-.29-.083-.253-.023.061.099-.07.08-.202-.03l-.146-.12.13.175c.232.313.69.868.893 1.084.257.271.437.394 1.045.71.292.15.544.314.611.396.118.141.207.19.17.09zm18.87-.142c-.002-.11-.183-.251-.278-.215-.112.043-.093.275.027.32.102.037.252-.025.25-.105zm-13.667.045c.274-.142.232-.545-.083-.797-.08-.064-.64-.074-.678-.012-.016.026.048.046.161.049l.188.005-.186.03c-.242.04-.28.084-.306.35-.022.234.023.332.185.397.148.06.586.047.719-.022zm-.27-.75a.168.168 0 01.11 0c.03.011.005.021-.055.021s-.085-.01-.055-.022zm-4.318-1.129c.01-1.037 0-1.637-.027-1.637-.045 0-.182.295-.324.698-.193.545-.193.545-.087.93.066.245.423 1.631.423 1.646l.015-1.637zm18.62 1.146c-.069-.236-.367-.83-.4-.797-.01.01.045.152.122.315s.168.39.203.504c.035.114.08.207.103.207.021 0 .009-.103-.028-.229zm-.235.066c-.002-.076-.218-.68-.26-.731a.488.488 0 01-.065-.2c-.018-.142-.17-.344-.222-.293-.014.015-.003.07.025.123.03.056.033.084.007.068-.106-.065-.09.075.028.246.153.224.27.448.27.515 0 .027-.102-.103-.227-.29-.277-.414-.447-.583-.893-.886-.384-.262-.392-.276.247.417.18.195.472.515.648.71.28.309.446.429.442.32zm-.697-1.146c-.026-.048-.066-.088-.09-.088-.023 0-.018.04.013.088.03.048.07.087.089.087.019 0 .014-.04-.012-.087zm1.002-.437c-.086-.394-.336-1.155-.674-2.052-.894-2.368-1.418-4.032-1.744-5.544-.111-.516-.214-.988-.228-1.048a21.1 21.1 0 01-.125-.786c-.137-.94-.137-.51 0 .81.136 1.302.093.977.462 3.49.049.337.155.995.236 1.463.16.926.302 1.861.372 2.445.084.693.05.629.41.76.29.106.558.295.5.353-.013.013-.14-.03-.28-.095-.27-.124-2.543-.86-2.478-.802.04.036 1.111.428 1.5.55.131.04.458.16.726.265.268.105.509.191.534.191.134 0 .652.201.745.29.059.055.11.096.116.09a3.572 3.572 0 00-.072-.38zm-7.67-.037c.024-.024.03-.095.015-.157-.035-.139-.654-.611-.752-.574-.077.03-.04.113.05.113.033 0 .133.078.221.174.348.376.367.496.053.328a.987.987 0 00-.274-.109.677.677 0 01-.231-.102c-.227-.142-.358-.17-.392-.083-.033.088.29.386.486.446.164.051.763.024.824-.036zm-.564-.406c-.103-.114-.29-.212-.407-.212-.078 0-.084-.013-.045-.087a.182.182 0 01.15-.087c.101 0 .22-.096.175-.141-.013-.014.034-.05.104-.081.125-.056.357-.436.357-.585 0-.114-.296.212-.327.36-.016.077-.055.141-.086.141-.031 0-.067.04-.08.087-.015.059-.06.088-.134.088-.066 0-.168.055-.249.134-.08.078-.164.123-.201.109a.481.481 0 00-.144-.025c-.044 0-.091-.03-.105-.068-.021-.054-.006-.063.071-.04l.171.048c.048.013.1-.026.151-.113.044-.073.109-.133.146-.134.037 0 .123-.05.191-.11.096-.085.118-.135.098-.218-.022-.085-.01-.107.053-.107.168 0 .401-.371.401-.637 0-.15-.142-.455-.212-.455-.017 0-.117-.079-.22-.176-.184-.17-.192-.174-.25-.09-.09.127-.683.485-.805.485-.058 0-.211-.04-.34-.09a.89.89 0 00-.48-.062c-.214.023-.781-.041-1.188-.135-.101-.024-.117-.008-.167.158-.03.1-.039.197-.019.215.02.017.201.084.403.15.58.187 1.077.462.836.462-.05 0-.09.028-.09.062a.443.443 0 01-.026.131c-.021.055.005.07.13.07.119 0 .174-.027.228-.11.057-.087.085-.1.132-.06.077.063.077.125.002.125-.033 0-.096.041-.141.091-.052.058-.118.084-.181.072-.198-.038-.096.084.116.138.119.03.24.084.268.118a.707.707 0 00.21.131c.086.037.282.126.435.197.216.102.29.119.338.08.048-.04.132-.016.388.11.18.09.34.184.357.21.022.036.036.034.049-.005.01-.03-.018-.095-.063-.144zm-1.281-.484c-.55-.244-.591-.268-.48-.286.143-.023.218-.088.218-.19 0-.044.03-.081.065-.081.093 0 .082.103-.021.196-.048.044-.088.106-.088.138 0 .068.196.08.275.017l.217-.18c.098-.082.19-.126.231-.11.097.036.048.092-.2.227-.23.125-.275.192-.13.192.048 0 .088-.02.088-.044 0-.024.049-.043.109-.043.108 0 .283-.135.283-.219 0-.024.03-.043.066-.043.036 0 .065.028.065.062 0 .097-.217.33-.307.33-.044 0-.093.02-.107.044-.035.056-.144.052-.284-.01zm.774-.292c-.016-.059-.004-.077.038-.06.034.012.061.05.061.083 0 .091-.074.074-.1-.023zm4.86.305c.05-.295.14-.683.198-.861.21-.646.657-1.527 1.027-2.028.236-.32.246-.344.141-.344-.04 0-.197-.07-.35-.156-.365-.204-.97-.353-1.66-.411a11.984 11.984 0 01-.796-.09 2.378 2.378 0 00-.35-.039l-.112.003.108.043c.14.055.724.184 1.364.3.485.086.796.192 1.191.402.097.05.182.098.191.105.01.008-.073.167-.183.354-.596 1.018-1.033 2.268-1.033 2.955 0 .125.115.362.156.32.01-.009.058-.258.109-.553zm-5.59.303c0-.024-.03-.044-.067-.044a.108.108 0 01-.092-.065c-.028-.073-.136-.085-.23-.026-.047.03-.032.054.066.107.143.077.323.093.323.028zm-.45-.244c.008-.026-.06-.07-.153-.098a1.63 1.63 0 01-.362-.18c-.219-.15-.258-.16-.258-.068 0 .035.054.078.12.094s.13.043.142.06c.012.018.1.084.194.148.173.117.287.133.317.044zm2.162-.231c.2-.176.351-.465.276-.527-.09-.074-.195-.006-.293.189-.05.099-.128.232-.173.296a.574.574 0 00-.082.142c0 .066.142.014.272-.1zm-4.514-.19c.024-.079.085-.304.136-.5.05-.197.169-.58.261-.851.093-.272.252-.76.354-1.084.102-.324.26-.77.35-.993.09-.222.15-.412.132-.423a1.332 1.332 0 00-.203-.064 23.376 23.376 0 01-.673-.194c-.276-.084-.934-.274-1.463-.424-.528-.15-1.088-.32-1.244-.38-.156-.059-.333-.123-.393-.142-.06-.02-.274-.096-.476-.17-.433-.16-.644-.18-.375-.038.562.297 3.487 1.356 4.19 1.516.122.028.131.043.124.209-.009.197-.258 1.068-.671 2.348-.276.853-.326 1.134-.222 1.259.087.105.125.09.173-.07zm1.23-.102c0-.034-.04-.063-.087-.063-.096 0-.121.112-.033.144.074.026.12-.005.12-.08zm-1.528-.052c0-.018-.195-.126-.433-.24-.477-.23-1.206-.685-1.892-1.179a79.46 79.46 0 00-1.102-.773c-.36-.247-.729-.516-.819-.597-.09-.08-.188-.146-.218-.145-.12.002.338.354 1.757 1.351.862.605 1.611 1.076 2.205 1.385.447.234.502.255.502.198zm4.89-.541c0-.253-.021-.345-.118-.516a.927.927 0 00-.203-.263c-.057-.035-.039.005.051.114.13.158.138.188.138.525 0 .197.012.389.027.427.055.144.104.008.104-.287zm.218.16c0-.037-.02-.066-.044-.066-.024 0-.044.03-.044.065 0 .036.02.066.044.066.024 0 .044-.03.044-.066zm3.445-.348c.05-.144.09-.281.09-.306-.004-.078-.257.475-.26.564-.002.137.07.026.17-.258zm-17.322-.013c-.077-.142-.724-.74-.966-.892-.361-.227-.67-.326-.786-.253-.05.032-.037.042.056.042.374.002.872.307 1.404.86a5.7 5.7 0 00.32.32c.007 0-.006-.035-.028-.077zm.346-.298c.213-.257.638-.432 1.525-.628.348-.077.81-.2 1.026-.273.435-.148.956-.38.924-.413-.011-.01-.096.018-.188.065-.438.22-1.256.423-2.155.53a4.435 4.435 0 00-.542.092c-.106.035-.145.026-.23-.053-.055-.053-.1-.122-.1-.154 0-.031-.02-.057-.042-.057-.023 0 .01.099.073.22l.114.221-.114.114-.114.114-.284-.265c-.333-.312-.601-.502-.809-.572-.216-.074-.214-.03.003.104.105.064.352.276.55.47.346.342.356.357.293.454-.074.113-.018.137.07.03zm11.937-.174c.451-.295.46-.307.317-.424-.216-.176-.26-.368-.256-1.12l.002-.68-.171-.098c-.224-.129-1.111-1.096-1.623-1.77a64.733 64.733 0 00-.934-1.19 20.89 20.89 0 01-.717-.935c-.353-.519-.907-1.782-1.17-2.664l-.084-.284-.09.2c-.048.11-.114.34-.146.513-.032.172-.08.313-.107.313-.028 0-.074-.16-.107-.373-.032-.204-.072-.357-.09-.338-.017.019-.041.398-.053.842-.019.727-.042.917-.226 1.897a29.85 29.85 0 01-.34 1.593c-.197.743-.21.696.23.861.203.077.596.201.872.277 1.416.385 2.822.798 2.868.844.058.057.013.295-.16.836-.196.62-.479 1.567-.47 1.576.034.033 1.068.149 1.34.15.24.002.371.025.482.086.222.122.294.109.633-.112zm5.209.002c-.014-.014-.038.01-.055.054-.023.062-.018.067.025.024.03-.03.043-.065.03-.078zM13.03 20.946c.948-.033 2.05-.131 2.227-.2.1-.038-.254-.018-.74.043-.464.058-1.552.092-1.552.049 0-.01.046-.122.103-.251.3-.678.935-2.551.882-2.604-.017-.017-.247.611-.54 1.474-.119.348-.28.794-.357.99l-.142.358-.216.047a3.706 3.706 0 01-.237.046c-.012 0 .05-.123.136-.273.27-.462.582-1.148.983-2.151.627-1.57 1.055-2.925 1.334-4.224.29-1.347.761-3.689.759-3.764-.002-.058-.328.822-.914 2.466a211.578 211.578 0 01-1.672 4.562c-.532 1.353-1.192 2.76-1.518 3.233-.183.266-.172.295.1.264.126-.014.74-.043 1.364-.065zm17.209-.425c.053-.082.052-.102-.01-.164-.165-.165-.375-.031-.303.194.037.117.227.099.313-.03zm-.464-2.876a23.193 23.193 0 00-.079-1.288c-.026-.136-.032-.122-.056.131-.07.734-.477 2.072-.846 2.778l-.233.447.289.046c.16.026.437.061.617.08l.327.033.015-.546a31.93 31.93 0 00-.034-1.68zm-1.257 1.888c.199-.342.414-.965.6-1.735.101-.42.25-1.02.328-1.331.135-.534.208-.939.17-.939-.01 0-.07.103-.133.23-.388.765-.8 1.208-1.894 2.035-.42.317-.879.67-1.02.782l-.256.205h-.388c-.213 0-.387.012-.387.027 0 .05.503.293.895.43.535.189 1.623.475 1.818.479.143.003.17-.016.267-.183zm-2.15-.955c.083-.051.25-.177.37-.278.12-.102.503-.397.851-.657 1.006-.75 1.369-1.136 1.777-1.897.367-.682.56-1.365.776-2.728.015-.096.077-.347.138-.558.107-.372.12-.618.02-.364a2.08 2.08 0 01-.39.54c-.078.063-.263.07-.354.013-.049-.03-.034-.047.066-.07.174-.042.278-.139.374-.347.142-.309.09-.624-.133-.826-.117-.106-.15-.068-.217.241-.028.135-.1.31-.16.39a.567.567 0 00-.107.276c0 .123-.003.126-.081.055-.067-.06-.102-.065-.19-.025-.127.058-.428-.007-.515-.111-.1-.12-.165-.072-.194.142-.038.283.073.784.267 1.199.147.313.153.343.092.436-.08.12-.67.733-.705.733-.074 0 .096-.271.3-.48.33-.336.344-.393.195-.768-.192-.484-.239-.92-.158-1.464.078-.528.142-.698.356-.954.254-.304.28-.39.068-.217-.297.243-.676.52-.713.52-.018.001-.004-.056.033-.127a.597.597 0 00.067-.212c0-.072.1-.39.198-.635.018-.045-.063.012-.18.126-.39.38-.48.42-.999.446-.253.013-.46.009-.46-.01 0-.017.123-.164.273-.327.24-.26.73-1.064.68-1.116-.019-.018-.226.275-.451.636-.165.265-.355.479-.426.478-.036 0-.039-.011-.008-.033.08-.055.416-.5.394-.523-.011-.011-.115.077-.23.196-.116.12-.245.23-.287.244-.042.015-.076.052-.076.082 0 .031-.06.09-.134.132-.12.069-.142.07-.235.009-.081-.053-.106-.055-.122-.01-.01.03-.044-.02-.074-.113-.079-.236-.137-.116-.07.142.03.11.068.246.086.3.063.197-.056.092-.192-.168-.161-.31-.484-.736-.546-.72-.023.006-.07.102-.105.215a1.188 1.188 0 01-.18.342c-.102.123-.147.141-.383.158-.232.017-.295.004-.466-.096-.157-.093-.198-.141-.199-.235 0-.16-.068-.263-.13-.2-.034.033-.029.062.02.102.037.031.067.075.067.098 0 .022-.032.009-.071-.03-.05-.05-.086-.058-.117-.027-.076.076.186.44.437.61.125.083.217.168.205.188-.043.069-.215.036-.27-.051-.03-.048-.074-.088-.1-.088-.025 0-.033.02-.018.044.014.024.008.044-.015.044-.045 0-.156-.154-.283-.393-.045-.084-.227-.3-.405-.481-.178-.181-.323-.343-.323-.36 0-.017.1-.198.222-.403.183-.303.337-.677.28-.677-.007 0-.073.093-.147.207a1.669 1.669 0 01-.3.338c-.09.072-.251.22-.357.328-.106.108-.18.162-.165.12.015-.042.059-.239.097-.437.038-.198.098-.495.134-.66.035-.165.057-.308.048-.317-.028-.028-.196.596-.266.988a6.9 6.9 0 00-.072 1.79c.097 1.09.304 2.035.562 2.567.152.315.205.393.44.643.1.108.164.196.14.196-.076 0-1.204-1.243-1.41-1.554-.253-.385-.55-.967-.587-1.147-.015-.075-.042-.137-.06-.137-.063 0 .39 1.65.565 2.06.095.223.143.367.106.32-.138-.18-.32-.591-.598-1.357-.25-.688-.364-1.105-.66-2.42l-.055-.24-.033.24c-.067.493-.318 1.44-.382 1.44-.019 0-.035-.014-.035-.032 0-.018-.05-.269-.109-.557-.06-.288-.12-.74-.133-1.004a5.625 5.625 0 00-.069-.677c-.046-.203-.28-.55-.528-.782-.262-.246-.56-.157-.878.263-.643.85-.674 1.567-.108 2.56.212.371.728.922.95 1.014.263.11.788-.06.788-.253 0-.15.054.01.155.457.2.888.512 1.66.906 2.252.535.802 1.888 1.996 3.355 2.961.86.566 1.229.677 1.565.472zm.7-1.978a.38.38 0 00-.18-.09c-.07-.016-.139-.047-.153-.07-.037-.06.195.003.345.095.068.04.105.087.081.1-.023.015-.065 0-.093-.035zm.302-.523l-.152-.149-.48.074c-.47.071-.633.075-.633.012 0-.017.25-.055.556-.084l.555-.053.194.12c.198.123.278.23.171.23-.032 0-.127-.068-.21-.15zm-7.443-4.225a3.72 3.72 0 01-.255-.159l-.169-.113-.086.106-.086.106-.158-.086a1.341 1.341 0 01-.328-.304c-.336-.434-.413-.76-.28-1.183.038-.118.08-.307.096-.421.032-.235.242-.546.41-.607.09-.033.13-.012.269.134.093.098.193.264.23.383l.165.534.1.324-.1.066c-.054.036-.179.184-.277.329-.098.145-.187.238-.198.207-.01-.031.04-.138.111-.238.284-.398.292-.433.188-.829-.109-.412-.193-.603-.314-.712-.08-.072-.098-.073-.203-.014a.668.668 0 00-.315.53.9.9 0 01-.087.34c-.12.235-.112.502.024.774.152.306.439.624.562.624.135 0 .154-.03.112-.178-.04-.14.001-.167.09-.06.03.037.146.12.256.184.22.128.38.26.35.29-.011.01-.059-.002-.107-.027zm5.327-.372c-.166-.04-.174-.1-.014-.1.086 0 .18.03.21.066.045.054.04.065-.027.06a1.193 1.193 0 01-.17-.026zm-.532-.043c-.128-.016-.27-.12-.225-.165.01-.01.087-.001.17.02.083.023.205.053.272.066.067.014.11.044.096.068-.026.042-.054.043-.313.01zm-5.951-1.234c0-.024.088-.066.195-.093.173-.043.187-.056.129-.114-.107-.107-.042-.11.133-.007l.162.095-.124.052c-.183.077-.495.119-.495.067zm12.174 6.073c-.028-.34-.07-.617-.092-.617-.022 0-.03.074-.017.164.013.09.047.375.076.633.028.26.06.463.068.454.01-.01-.006-.294-.035-.634zm-14.247-2.43c.282-1.074.84-3.756.793-3.803-.01-.011-.05.114-.088.277l-.248 1.06a55.7 55.7 0 00-.311 1.42c-.073.36-.209.988-.303 1.396-.094.408-.17.752-.167.764.009.044.133-.383.324-1.114zm1.696-.304c.031-.208-.033-.082-.078.152-.019.1-.015.13.01.088a.876.876 0 00.068-.24zm4.303-.162a9.016 9.016 0 01-.396-.952c-.226-.642-.28-.695-.097-.093.134.44.37.998.532 1.259.187.3.164.174-.04-.214zm-6.809.205c0-.024-.019-.014-.042.022a.262.262 0 00-.042.11c0 .023.019.013.042-.023a.262.262 0 00.042-.109zm2.914-.185c-.01-.066-.018-.022-.019.098 0 .12.008.174.019.12a.782.782 0 000-.218zm13.013-.051c.095-.13.273-.502.27-.564-.002-.016-.042.044-.09.134-.047.09-.203.284-.347.43a3.16 3.16 0 00-.26.285c0 .058.343-.171.427-.285zm-15.84.018c0-.024-.018-.014-.042.022a.262.262 0 00-.042.109c0 .024.019.014.042-.022a.262.262 0 00.043-.109zm2.55-.51c.018-.21.015-.234-.013-.101-.058.28-.093.63-.05.494a2.49 2.49 0 00.062-.393zm.231.172c-.012-.03-.022-.006-.022.054s.01.085.022.055a.169.169 0 000-.11zm12.85-.59a3.27 3.27 0 00.13-.48c-.001-.042-.08.16-.175.448-.095.288-.172.533-.172.545 0 .079.106-.17.217-.513zm-2.836-.292l-.1-.106.099-.203c.054-.111.124-.212.155-.225.032-.012.131.034.22.102.09.068.154.098.143.066-.01-.031-.09-.098-.178-.148-.14-.08-.176-.084-.293-.036-.208.086-.414.482-.252.482.032 0 .104.05.16.11.057.06.113.098.125.086.012-.012-.024-.07-.079-.128zm.446.006c.09-.041.163-.094.163-.118 0-.069-.305-.05-.378.023-.064.065-.049.22.018.186.018-.01.107-.05.197-.091zm-12.716-.14c0-.023-.02-.014-.043.023a.262.262 0 00-.042.109c0 .024.019.014.042-.022a.262.262 0 00.043-.11zm.107-.283c.02-.076.017-.09-.011-.044a.802.802 0 00-.07.175c-.02.076-.017.09.011.044a.802.802 0 00.07-.175zm12.903.11c0-.037.023-.066.051-.066.028 0 .041-.01.029-.023-.013-.012-.075.004-.138.037-.113.059-.113.117 0 .117.032 0 .058-.03.058-.066zm-7.435-.118c-.014-.035-.024-.025-.026.026-.002.046.008.072.023.057.014-.014.016-.052.003-.083zm-.045-.221c-.012-.03-.022-.006-.022.054s.01.085.022.055a.168.168 0 000-.11zm-5.292-.12c.02-.076.017-.09-.012-.044a.802.802 0 00-.07.175c-.02.075-.016.089.012.043a.802.802 0 00.07-.174zm13.951.044c0-.163-.016-.185-.245-.337-.134-.09-.221-.17-.193-.18.029-.01.105.032.169.092.2.188.288.188.37 0 .112-.257.16-.526.101-.575a1.689 1.689 0 00-.279-.132l-.23-.09-.168.153a1.026 1.026 0 00-.224.283c-.03.072-.066.13-.081.131a.509.509 0 00-.134.083l-.107.082.115-.022a.647.647 0 01.266.029c.213.07.553.378.553.5 0 .088.032.157.072.157a.537.537 0 00.015-.174zm-8.701-.096c-.014-.035-.025-.025-.027.026-.002.046.009.072.023.058.015-.015.016-.053.004-.084zM16.91 10.9c.021-.087.015-.083-.033.022-.033.072-.072.18-.087.24-.021.088-.015.084.033-.021.033-.072.072-.18.087-.24zm7.956-.252c.128-.105.152-.202.077-.31-.1-.141-.135-.111-.116.099.016.175.008.193-.096.22-.075.018-.136.005-.18-.039-.077-.076-.192-.09-.192-.022 0 .125.371.164.507.052zm-7.779-.228c.02-.076.017-.089-.011-.043a.802.802 0 00-.07.174c-.02.076-.017.09.011.044a.802.802 0 00.07-.175zm7.554.003a.047.047 0 00-.015-.065c-.022-.014-.05.005-.065.04-.027.071.039.092.08.025zm1.89-.046a.205.205 0 00-.155-.088c-.118 0-.09.075.05.132.145.058.165.05.106-.044zm4.44-.142c.113-.496.178-1.514.135-2.098-.036-.47-.091-.56-.106-.172-.015.377-.12.836-.351 1.528l-.208.622.222.105c.28.133.282.133.309.015zm-4.176-.27c.222-.331.359-.602.356-.71-.001-.053-.027-.032-.078.063a3.526 3.526 0 01-.36.459c-.174.194-.278.345-.268.392.03.149.164.07.35-.204zm-.394.027c.01-.029-.014-.052-.052-.052a.07.07 0 00-.07.07c0 .076.095.063.122-.018zm-8.866-.104c-.014-.035-.025-.024-.027.027-.002.046.009.071.023.057.015-.015.016-.052.004-.084zm5.856-.178c.121-.177.21-.381.167-.381-.02 0-.361.469-.441.604-.086.147.156-.05.274-.223zm2.961-.043a1.97 1.97 0 00.272-.394c.084-.173.092-.22.045-.276-.066-.08-.395-.252-.65-.34l-.179-.061-.242.364c-.134.2-.275.39-.313.421-.08.064-.036-.01.307-.522.114-.17.208-.322.208-.337 0-.015-.174.194-.387.466l-.387.494.136.013c.075.007.293.09.485.182s.39.17.442.172c.056.002.16-.07.263-.182zm1.412-.747c0-.055-.02-.03-.084.103-.049.103-.048.105.016.025.038-.047.068-.104.068-.128zm-.834-.214c.19-.415.476-1.314.53-1.67.065-.43.118-1.243.081-1.243-.015 0-.133.197-.262.439-.412.768-.852 1.513-1.07 1.812l-.268.366c-.05.068-.01.099.392.298.247.122.459.222.47.224.013.001.07-.1.127-.226zm.962-.12c0-.035-.03.001-.064.082a.884.884 0 00-.062.175c.003.057.126-.193.126-.256zm4.675-.529c-.027-.29-.069-.569-.092-.62-.03-.069-.035-.028-.02.146.012.132.033.397.048.589.029.381.065.558.096.468.01-.031-.004-.293-.032-.583zm-3.033.017c.064-.21.143-.434.176-.498.065-.125.183-.142.268-.037.047.057.054.056.055-.011.001-.083.067-.103.11-.033.015.025.078.032.14.016.105-.026.11-.02.092.11-.02.139.023.187.067.074.054-.142.077-.578.035-.68-.039-.095-.045-.098-.047-.02-.004.136-.229.137-.375.001a.506.506 0 00-.207-.12c-.063-.01-.106-.062-.135-.166-.045-.161-.049-.153-.095.196l-.029.217-.06-.174a4.088 4.088 0 01-.062-.183c0-.006-.028 0-.062.014-.036.013-.083-.015-.111-.067-.027-.05-.07-.09-.094-.09-.077 0-.388-.332-.388-.413 0-.05-.023-.069-.066-.052-.036.014-.065.006-.065-.016 0-.026-.041-.026-.11 0-.097.037-.108.03-.108-.063 0-.104 0-.104-.133.028-.13.13-.134.131-.223.051a.618.618 0 01-.135-.19l-.044-.11-.065.153c-.074.175-.208.892-.244 1.31-.022.258-.02.269.025.118.029-.096.07-.157.101-.145.029.011.07.004.09-.016.021-.02.087-.014.147.012.06.026.149.048.197.05.062.002.091.038.1.123.02.157.067.151.18-.022.086-.135.092-.137.117-.047.016.059.05.086.087.072.034-.013.062.001.062.032 0 .037.026.031.081-.02.075-.067.085-.068.11-.003.015.04.03.133.033.21.004.094.011.108.024.044.023-.117.187-.278.19-.186 0 .042.015.036.047-.018.041-.07.052-.072.097-.012.056.076.12.048.195-.083.043-.076.05-.065.05.087 0 .158-.088.652-.153.858-.014.044-.016.08-.003.08.012 0 .074-.171.138-.381zM26.4 7.6c.122-.194.292-.498.378-.676.188-.386.144-.33-.155.2-.122.216-.338.566-.479.776-.141.211-.257.396-.257.41 0 .049.287-.349.513-.71zm5.222.365c.073-.273.007-.75-.128-.928-.057-.075-.072-.078-.11-.022-.064.094-.013.66.079.871.087.201.121.218.159.079zm-5.704-1.473c.06-.048.125-.078.142-.067.044.027.17-.118.41-.474.246-.364.265-.443.075-.325a.147.147 0 01-.222-.122c0-.033-.02-.06-.044-.06-.026 0-.033-.047-.017-.11.036-.143-.016-.14-.07.003-.024.061-.063.1-.087.085-.024-.015-.043-.007-.043.019 0 .025-.02.046-.043.046-.023 0-.031-.034-.018-.076.02-.066.014-.064-.045.008-.04.048-.07.061-.07.03 0-.032-.021-.04-.054-.02-.123.077-.2.06-.175-.041.018-.075.011-.086-.03-.048-.129.12-.26-.023-.265-.29l-.002-.109-.06.11-.062.109-.042-.11c-.037-.094-.047-.098-.073-.032-.05.121-.11.089-.11-.06v-.135l-.085.103-.086.103-.001-.1c-.002-.085-.014-.093-.086-.055-.113.06-.134.058-.134-.02 0-.036-.015-.063-.033-.06-.12.019-.15-.013-.132-.136.01-.072.006-.131-.009-.131s-.02-.074-.013-.164c.012-.145.008-.154-.041-.081-.088.13-.252.305-.252.268 0-.019-.025-.014-.055.011-.076.064-.189-.03-.182-.15.005-.082-.005-.088-.073-.046-.114.07-.155.003-.062-.1.109-.12.032-.11-.161.021-.15.103-.16.104-.144.022a.489.489 0 01.043-.13c.016-.025-.002-.032-.04-.017-.087.033-.086-.003.002-.139.068-.102.067-.106-.01-.078-.47.169-1.283 1.158-1.283 1.56 0 .169.002.17.087.092.085-.076.088-.076.088.007a.222.222 0 01-.052.137c-.028.028-.043.06-.031.071.01.012.093-.048.182-.133.17-.16.2-.115.079.115-.053.1-.046.098.09-.028.133-.123.296-.16.229-.051-.018.028-.043.023-.07-.015-.032-.044-.036-.04-.017.02a.275.275 0 01-.02.175c-.029.058.001.04.077-.049.098-.114.134-.132.177-.089.041.041.054.042.054.002 0-.029.022-.053.05-.053.03 0 .039.048.022.134-.032.156.042.135.105-.031.047-.122.129-.1.129.036 0 .09 0 .09.076-.003.056-.067.094-.08.142-.05.055.036.057.057.008.136-.077.124-.041.15.057.04.116-.127.165-.107.13.055-.027.135-.025.138.04.054.037-.048.069-.072.07-.053 0 .019.06.003.132-.034.156-.08.16-.051.034.226l-.114.254c-.01.024.048-.02.13-.098.083-.078.171-.142.197-.142.026 0 .073-.03.104-.067.044-.054.063-.057.092-.011.03.045.046.043.084-.009.037-.052.052-.054.07-.008.018.044.041.04.106-.018.079-.072.082-.07.082.044v.119l.134-.095c.153-.11.202-.092.128.045-.068.128-.025.158.105.072.107-.07.108-.068.123.07l.015.142.059-.117c.064-.128.16-.122.202.014.022.067.04.075.088.036.073-.061.165-.012.133.071-.032.084.006.077.136-.025zm.144-.105c0-.009.034-.043.076-.076.07-.054.07-.053.016.016-.057.073-.092.096-.092.06zm-6.33-1.73c.184-.249.323-.383.51-.495.038-.022.035.014-.01.122-.085.203-.08.24.024.22.05-.009.078 0 .065.022-.043.07.054.089.11.022.083-.1.119-.078.113.073-.003.076.02.146.05.156.03.01.054-.017.055-.061 0-.068.007-.07.044-.015.038.057.05.056.09-.01.061-.106.127-.096.127.018v.095l.11-.103.108-.102v.095a.971.971 0 01-.093.293c-.05.109-.084.207-.073.217.01.011.085-.073.166-.187.088-.125.153-.184.165-.148.014.04.055.024.142-.06l.123-.117-.02.19c-.017.165-.012.18.036.11.165-.235.172-.235.143-.015l-.027.21.093-.079c.428-.364.802-.903.812-1.17a1.192 1.192 0 00-.015-.259c-.02-.078-.027-.077-.102.022-.072.095-.078.097-.057.014.03-.113-.096-.127-.22-.023-.068.057-.061.029.033-.143.065-.118.11-.222.101-.231-.01-.01-.074.044-.143.118a1.12 1.12 0 01-.212.183c-.086.046-.086.045-.007-.044.092-.103.06-.199-.056-.163-.048.016-.118-.017-.187-.086-.071-.07-.137-.1-.184-.082-.063.024-.061.007.016-.13.049-.088.07-.159.048-.159-.022 0-.051.019-.066.042-.014.023-.056.03-.093.016-.053-.02-.032-.063.1-.203.11-.117.13-.152.058-.103-.06.041-.139.088-.175.103a1.165 1.165 0 00-.191.132c-.07.057-.136.093-.15.08-.026-.027.319-.734.427-.875.066-.086.066-.086-.031-.004-.054.046-.099.107-.099.135 0 .069-.167.219-.203.183-.015-.015-.002-.058.029-.095.123-.15-.013-.115-.176.044-.22.215-.22.167.001-.164.166-.248.168-.257.055-.185a2.294 2.294 0 00-.248.19l-.127.115.093-.136c.051-.075.081-.148.067-.163-.015-.015 0-.06.034-.1.054-.067.05-.072-.038-.05-.054.014-.087.008-.074-.014.014-.021 0-.04-.032-.04-.034-.002-.016-.036.04-.084.124-.103.128-.152.008-.088-.115.062-.148.03-.087-.083.072-.134.059-.145-.086-.07l-.133.068.068-.133c.042-.08.05-.133.023-.133-.163 0-.888.503-1.289.894-.352.345-.584.765-.38.69.067-.024.066-.016-.009.07-.084.095-.084.096 0 .064.078-.03.08-.025.02.053s-.06.08.01.025c.042-.033.063-.082.048-.11-.016-.027-.012-.034.007-.016.02.018.073 0 .117-.04.044-.04.08-.052.08-.027 0 .025-.031.07-.069.101-.08.068-.299.431-.274.457.01.01.115-.065.234-.166l.216-.183-.114.152c-.112.15-.13.195-.19.459l-.028.13.097-.103.097-.103.05.093c.038.071.061.08.1.041.077-.076.118.063.055.182-.072.135-.032.147.111.034.1-.079.119-.083.095-.022-.03.08.032.105.078.03a.051.051 0 01.07-.018c.113.07-.085.558-.635 1.57-.157.287-.285.543-.286.566 0 .024.159-.241.353-.59.195-.347.448-.76.564-.915zm7.132.893c.015-.039.008-.056-.017-.04-.024.014-.043.044-.043.067 0 .063.03.049.06-.027zm-1.37-.368c0-.024-.009-.044-.02-.044-.01 0-.03.02-.046.044-.014.024-.006.043.02.043.025 0 .046-.02.046-.043zm-3.449-.142c0-.024-.029-.02-.065.01-.036.03-.066.075-.066.099 0 .024.03.02.066-.011.036-.03.065-.074.065-.098zm.808-.873c.545-.587.821-.865 1.506-1.516l.196-.187-.239.191c-.586.468-2.042 1.982-2.178 2.265l-.053.109.078-.103c.043-.056.354-.398.69-.76zm-2.641.534c.025-.048.037-.087.024-.087-.012 0-.042.04-.068.087-.026.048-.037.088-.025.088.012 0 .043-.04.069-.088zm2.567-1.114c-.014-.014-.038.01-.054.054-.024.062-.02.067.024.024.03-.03.043-.065.03-.078z" />
</svg>